<svg width="60" height="53" viewBox="0 0 60 53" fill="none" xmlns="http://www.w3.org/2000/svg">
<g clip-path="url(#clip0_103_24)">
<path d="M9.5 25.4707L4.5 25.4707" stroke="black" stroke-linecap="round"/>
<path d="M9.5 7.4707L4.5 7.4707" stroke="black" stroke-linecap="round"/>
<path d="M9.5 34.4707L4.5 34.4707" stroke="black" stroke-linecap="round"/>
<path d="M9.5 52.4707L4.5 52.4707" stroke="black" stroke-linecap="round"/>
<path d="M12.5 16.4707L4.5 16.4707" stroke="#FF0000" stroke-linecap="round"/>
<path d="M12.5 43.4707L4.5 43.4707" stroke="#FF0000" stroke-linecap="round"/>
<path d="M21.857 11.4708C21.3047 11.4651 20.8524 11.9081 20.8467 12.4604L20.754 21.4599C20.7483 22.0122 21.1913 22.4645 21.7436 22.4702C22.2958 22.4759 22.7482 22.0328 22.7538 21.4805L22.8363 13.481L30.8359 13.5634C31.3881 13.5691 31.8405 13.126 31.8461 12.5738C31.8518 12.0215 31.4088 11.5692 30.8565 11.5635L21.857 11.4708ZM55.1425 47.4707C55.6947 47.4763 56.1471 47.0333 56.1527 46.481L56.2455 37.4815C56.2512 36.9292 55.8081 36.4769 55.2559 36.4712C54.7036 36.4655 54.2513 36.9086 54.2456 37.4609L54.1632 45.4604L46.1636 45.378C45.6113 45.3723 45.159 45.8154 45.1533 46.3676C45.1476 46.9199 45.5907 47.3722 46.143 47.3779L55.1425 47.4707ZM21.8467 12.4707L21.1323 13.1705L54.4384 47.1705L55.1528 46.4707L55.8672 45.7709L22.561 11.7709L21.8467 12.4707Z" fill="black"/>
<path d="M20.5 46.4707C20.5 47.023 20.9477 47.4707 21.5 47.4707L30.5 47.4707C31.0523 47.4707 31.5 47.023 31.5 46.4707C31.5 45.9184 31.0523 45.4707 30.5 45.4707L22.5 45.4707L22.5 37.4707C22.5 36.9184 22.0523 36.4707 21.5 36.4707C20.9477 36.4707 20.5 36.9184 20.5 37.4707L20.5 46.4707ZM56.5 12.4707C56.5 11.9184 56.0523 11.4707 55.5 11.4707L46.5 11.4707C45.9477 11.4707 45.5 11.9184 45.5 12.4707C45.5 13.023 45.9477 13.4707 46.5 13.4707L54.5 13.4707L54.5 21.4707C54.5 22.023 54.9477 22.4707 55.5 22.4707C56.0523 22.4707 56.5 22.023 56.5 21.4707L56.5 12.4707ZM21.5 46.4707L22.2071 47.1778L56.2071 13.1778L55.5 12.4707L54.7929 11.7636L20.7929 45.7636L21.5 46.4707Z" fill="black"/>
</g>
<defs>
<clipPath id="clip0_103_24">
<rect width="60" height="51.7857" fill="white" transform="translate(0 0.470703)"/>
</clipPath>
</defs>
</svg>
