<svg width="60" height="52" viewBox="0 0 60 52" fill="none" xmlns="http://www.w3.org/2000/svg">
<g clip-path="url(#clip0_103_43)">
<path d="M28.125 14.5647C28.125 13.6714 28.965 12.9464 30 12.9464C31.035 12.9464 31.875 13.6714 31.875 14.5647C31.875 15.458 31.035 16.183 30 16.183C28.965 16.183 28.125 15.458 28.125 14.5647ZM35.625 0H33.75C32.715 0 31.875 0.725 31.875 1.6183V3.23661H28.125V1.6183C28.125 0.725 27.285 0 26.25 0H24.375C21.2681 0 18.75 2.17338 18.75 4.85491V46.9308C18.75 49.6123 21.2681 51.7857 24.375 51.7857H35.625C38.7319 51.7857 41.25 49.6123 41.25 46.9308V4.85491C41.25 2.17338 38.7319 0 35.625 0ZM27.7875 4.85491H32.2125L34.3163 13.9304C34.5375 14.8852 34.2544 15.8642 33.54 16.6167C32.8238 17.3693 31.7662 17.8013 30.6394 17.8013H29.3625C28.2338 17.8013 27.1781 17.3693 26.4619 16.6167C25.7475 15.8642 25.4644 14.8852 25.6856 13.9304L27.7875 4.85491ZM31.875 50.1674H24.375C22.3031 50.1674 20.625 48.719 20.625 46.9308V4.85491C20.625 3.06669 22.3031 1.6183 24.375 1.6183H26.25V3.95028C26.1113 4.12506 25.9987 4.31925 25.9481 4.53772L23.8444 13.6132C23.3775 15.628 24.4406 17.5311 26.2481 18.5797V21.0379C26.2481 21.9312 27.0881 22.6562 28.1231 22.6562H31.8731V24.2746H28.1231C27.0881 24.2746 26.2481 24.9996 26.2481 25.8929V27.5112C26.2481 28.4045 27.0881 29.1295 28.1231 29.1295H31.8731V30.7478H28.1231C27.0881 30.7478 26.2481 31.4728 26.2481 32.3661V33.9844C26.2481 34.8777 27.0881 35.6027 28.1231 35.6027H31.8731V37.221H28.1231C27.0881 37.221 26.2481 37.946 26.2481 38.8393V40.4576C26.2481 41.3509 27.0881 42.0759 28.1231 42.0759H31.8731V43.6942H28.1231C27.0881 43.6942 26.2481 44.4192 26.2481 45.3125V46.9308C26.2481 47.8241 27.0881 48.5491 28.1231 48.5491H31.8731L31.875 50.1674ZM39.375 46.9308C39.375 48.719 37.6969 50.1674 35.625 50.1674H33.75V48.5491C33.75 47.6558 32.91 46.9308 31.875 46.9308H28.125V45.3125H31.875C32.91 45.3125 33.75 44.5875 33.75 43.6942V42.0759C33.75 41.1826 32.91 40.4576 31.875 40.4576H28.125V38.8393H31.875C32.91 38.8393 33.75 38.1143 33.75 37.221V35.6027C33.75 34.7094 32.91 33.9844 31.875 33.9844H28.125V32.3661H31.875C32.91 32.3661 33.75 31.6411 33.75 30.7478V29.1295C33.75 28.2362 32.91 27.5112 31.875 27.5112H28.125V25.8929H31.875C32.91 25.8929 33.75 25.1679 33.75 24.2746V22.6562C33.75 21.7629 32.91 21.0379 31.875 21.0379H28.125V19.2983C28.5225 19.3743 28.935 19.4196 29.3606 19.4196H30.6375C34.1869 19.4196 36.8494 16.6167 36.1537 13.6132L34.05 4.53772C34.0013 4.31763 33.8888 4.12506 33.75 3.95028V1.6183H35.625C37.6969 1.6183 39.375 3.06669 39.375 4.85491V46.9308Z" fill="#0B1719"/>
<ellipse cx="30.0003" cy="14.3848" rx="3.33333" ry="2.87698" fill="#FF0000"/>
</g>
<defs>
<clipPath id="clip0_103_43">
<rect width="60" height="51.7857" fill="white"/>
</clipPath>
</defs>
</svg>
