<svg width="60" height="60" viewBox="0 0 60 60" fill="none" xmlns="http://www.w3.org/2000/svg">
<g clip-path="url(#clip0_103_16)">
<path d="M55.2006 33.8644C54.9972 33.6609 54.6922 33.5593 54.3871 33.5593C52.5566 33.5593 51.1329 33.0509 50.0143 31.8305C46.9634 28.6779 47.2684 22.4746 47.2684 22.3728C47.2684 11.0848 50.1159 5.59324 50.2176 5.59324C50.3193 5.2882 50.3193 4.98305 50.2176 4.67801C50.1159 4.37297 49.8108 4.16953 49.5057 4.06781L30.1837 0C29.8786 0 29.6752 1.39698e-08 29.3702 0.203437C29.0651 0.406875 28.9634 0.711914 28.9634 1.01695C28.9634 4.06781 27.9464 6.61019 25.8108 8.54238C19.5058 14.3389 5.77691 13.2204 5.6752 13.2204C5.37016 13.2204 5.065 13.3221 4.86168 13.5254C4.65836 13.7287 4.55664 13.9322 4.55664 14.2373V58.9832C4.55664 59.5934 4.9634 60.0001 5.57359 60.0001H28.9634C29.4719 60.0001 29.8786 59.6951 29.9804 59.1866L32.116 45.9662L35.0651 59.1866C35.1668 59.6951 35.5736 60.0001 36.0821 60.0001H51.3363C51.8447 60.0001 52.2515 59.5934 52.3532 59.0849L55.4041 34.6781C55.5058 34.3729 55.4041 34.0678 55.2006 33.8644ZM50.421 57.9661H36.8956L33.0312 40.4746C32.9295 39.9661 32.5227 39.6611 32.0143 39.6611C31.5058 39.6611 31.099 39.9661 30.9973 40.4746L28.1499 57.9661H6.59055V28.4746H7.6075C8.2177 28.4746 8.62445 28.0678 8.62445 27.4576C8.62445 26.8474 8.2177 26.4407 7.6075 26.4407H6.59055V15.3559C10.1499 15.4576 21.2346 15.4576 27.1329 9.96609C29.3703 7.93219 30.5905 5.28809 30.8957 2.23723L47.8787 5.89828C46.9635 8.13551 45.2346 13.5254 45.2346 22.3728C45.2346 22.4747 45.1581 24.2355 45.542 26.4407H44.2177C43.6075 26.4407 43.2007 26.8474 43.2007 27.4576C43.2007 28.0678 43.6075 28.4746 44.2177 28.4746H46.0154C46.5077 30.1311 47.3039 31.8302 48.5905 33.1526C49.8109 34.4746 51.438 35.2882 53.2686 35.4915L50.421 57.9661Z" fill="#343434"/>
<path d="M17.7771 26.4404H13.7093C13.0991 26.4404 12.6924 26.8472 12.6924 27.4574C12.6924 28.0676 13.0991 28.4743 13.7093 28.4743H17.7771C18.3873 28.4743 18.7941 28.0676 18.7941 27.4574C18.7941 26.8472 18.3873 26.4404 17.7771 26.4404Z" fill="#FF0000"/>
<path d="M38.116 26.4404H34.0482C33.438 26.4404 33.0312 26.8472 33.0312 27.4574C33.0312 28.0676 33.438 28.4743 34.0482 28.4743H38.116C38.7262 28.4743 39.133 28.0676 39.133 27.4574C39.133 26.8472 38.7262 26.4404 38.116 26.4404Z" fill="#FF0000"/>
<path d="M27.9461 26.4404H23.8783C23.2681 26.4404 22.8613 26.8472 22.8613 27.4574C22.8613 28.0676 23.2681 28.4743 23.8783 28.4743H27.9461C28.5563 28.4743 28.963 28.0676 28.963 27.4574C28.963 26.8472 28.5563 26.4404 27.9461 26.4404Z" fill="#FF0000"/>
</g>
<defs>
<clipPath id="clip0_103_16">
<rect width="60" height="60" fill="white"/>
</clipPath>
</defs>
</svg>
