<svg width="60" height="52" viewBox="0 0 60 52" fill="none" xmlns="http://www.w3.org/2000/svg">
<path d="M24.6207 31.5346L22.637 33.7852C21.1089 35.3216 19.1628 36.3673 17.0448 36.7901C14.9268 37.2129 12.7319 36.9939 10.7374 36.1608C8.74294 35.3276 7.03841 33.9177 5.83922 32.1092C4.64003 30.3007 4 28.1747 4 26C4 23.8253 4.64003 21.6993 5.83922 19.8908C7.03841 18.0823 8.74294 16.6724 10.7374 15.8392C12.7319 15.0061 14.9268 14.7871 17.0448 15.2099C19.1628 15.6327 21.1089 16.6784 22.637 18.2148L36.363 33.7852C37.8911 35.3216 39.8372 36.3673 41.9552 36.7901C44.0732 37.2129 46.2681 36.9939 48.2626 36.1608C50.2571 35.3276 51.9616 33.9177 53.1608 32.1092C54.36 30.3007 55 28.1747 55 26C55 23.8253 54.36 21.6993 53.1608 19.8908C51.9616 18.0823 50.2571 16.6724 48.2626 15.8392C46.2681 15.0061 44.0732 14.7871 41.9552 15.2099C39.8372 15.6327 37.8911 16.6784 36.363 18.2148L34.3793 20.4654" stroke="black" stroke-width="2" stroke-linecap="round" stroke-linejoin="round"/>
<circle cx="44" cy="26" r="6" fill="#FF0000"/>
</svg>
