<svg width="21" height="21" viewBox="0 0 21 21" fill="none" xmlns="http://www.w3.org/2000/svg">
<path d="M0.741211 19.2588C0.741211 19.8111 1.18893 20.2588 1.74121 20.2588L10.7412 20.2588C11.2935 20.2588 11.7412 19.8111 11.7412 19.2588C11.7412 18.7065 11.2935 18.2588 10.7412 18.2588L2.74121 18.2588L2.74121 10.2588C2.74121 9.7065 2.2935 9.25879 1.74121 9.25879C1.18893 9.25879 0.741211 9.7065 0.741211 10.2588L0.741211 19.2588ZM20.2597 1.74027C20.2597 1.18799 19.812 0.740271 19.2597 0.740271L10.2597 0.740272C9.70744 0.740272 9.25973 1.18799 9.25973 1.74027C9.25973 2.29256 9.70744 2.74027 10.2597 2.74027L18.2597 2.74027L18.2597 10.7403C18.2597 11.2926 18.7074 11.7403 19.2597 11.7403C19.812 11.7403 20.2597 11.2926 20.2597 10.7403L20.2597 1.74027ZM1.74121 19.2588L2.44832 19.9659L19.9668 2.44738L19.2597 1.74027L18.5526 1.03316L1.0341 18.5517L1.74121 19.2588Z" fill="#E84E22"/>
</svg>
