<svg width="603" height="605" viewBox="0 0 603 605" fill="none" xmlns="http://www.w3.org/2000/svg">
<path fill-rule="evenodd" clip-rule="evenodd" d="M460.904 45.7875C602.306 133.753 645.223 320.565 557.581 462.488C481.685 584.914 332.603 633.884 202.496 588.088C161.837 574.032 126.148 551.814 96.3315 524.155C95.8797 523.701 95.8797 523.701 95.4279 523.248C94.5244 522.341 93.6209 521.434 92.7174 520.527C68.3222 496.949 48.4446 470.197 33.5365 440.724C33.0847 440.27 32.6329 439.363 32.1812 438.457C31.7294 437.55 31.7294 437.096 31.2776 436.643C30.8259 435.283 29.9224 433.469 29.0188 432.109V431.655C7.78599 386.766 -2.60455 336.435 0.557791 284.744C0.557791 284.291 0.557791 283.837 0.557791 282.931C1.00955 281.57 1.00955 280.21 1.00955 278.396C1.00955 277.489 1.00955 276.583 1.46132 275.676C1.46132 275.222 1.46132 274.315 1.46132 273.409C5.97894 228.519 20.4353 183.63 45.7341 142.821C133.376 0.89807 319.502 -42.6311 460.904 45.7875ZM202.496 472.01C215.597 479.719 229.601 485.613 244.51 490.601C347.963 521.887 457.29 463.395 488.913 359.56C520.085 255.725 461.807 145.995 358.354 114.709C254.9 82.9686 145.574 141.914 114.402 245.296C113.498 248.47 112.595 251.644 111.691 254.818C111.691 255.725 111.24 256.178 111.24 256.632C107.174 273.409 105.818 290.185 105.818 306.509V313.31C109.433 377.697 144.67 438.003 202.496 472.01Z" fill="white"/>
</svg>
