<svg width="268" height="58" viewBox="0 0 268 58" fill="none" xmlns="http://www.w3.org/2000/svg">
<path fill-rule="evenodd" clip-rule="evenodd" d="M38.6778 47.9011H40.54C39.5006 48.4662 38.3314 48.9009 37.1621 49.2486L38.6778 47.9011ZM62.9291 49.7702H67.3463C67.4763 49.7702 67.5629 49.8137 67.6495 49.8572C67.6928 49.9006 67.6928 49.9876 67.6928 50.118V55.4212C67.6928 55.5516 67.6928 55.6386 67.6495 55.682C67.5629 55.7255 67.4763 55.769 67.3463 55.769H66.6967C66.5668 55.769 66.4802 55.7255 66.4369 55.682C66.3936 55.6386 66.3503 55.5516 66.3503 55.4212V51.0308H63.9252V55.4212C63.9252 55.5516 63.9252 55.6386 63.8386 55.682C63.7952 55.7255 63.7086 55.769 63.5787 55.769H62.9291C62.7992 55.769 62.7126 55.7255 62.6693 55.682C62.5827 55.6386 62.5827 55.5516 62.5827 55.4212V50.118C62.5827 49.9876 62.5827 49.9006 62.6693 49.8572C62.7126 49.8137 62.7992 49.7702 62.9291 49.7702ZM71.4604 53.639V51.9002C71.4604 51.2047 71.7202 50.6396 72.1533 50.2049C72.6297 49.8137 73.3226 49.5964 74.1887 49.5964C75.0548 49.5964 75.7044 49.8137 76.1807 50.2049C76.6571 50.6396 76.8736 51.2047 76.8736 51.9002V53.639C76.8736 54.3345 76.6571 54.8996 76.1807 55.3343C75.7044 55.7255 75.0548 55.9429 74.1887 55.9429C73.3226 55.9429 72.6297 55.7255 72.1533 55.3343C71.7202 54.8996 71.4604 54.3345 71.4604 53.639ZM75.5312 53.639V51.9002C75.5312 51.5525 75.4012 51.2917 75.1847 51.1178C74.9249 50.9004 74.6217 50.8135 74.1887 50.8135C73.7556 50.8135 73.4092 50.9004 73.1926 51.1178C72.9328 51.2917 72.8462 51.5525 72.8462 51.9002V53.639C72.8462 53.9867 72.9328 54.2476 73.1926 54.4214C73.4092 54.6388 73.7556 54.7257 74.1887 54.7257C74.6217 54.7257 74.9249 54.6388 75.1847 54.4214C75.4012 54.2476 75.5312 53.9867 75.5312 53.639ZM80.468 53.5521V51.9872C80.468 51.2047 80.6846 50.6396 81.1176 50.2049C81.594 49.8137 82.2436 49.5964 83.153 49.5964C83.8026 49.5964 84.3223 49.7268 84.7553 50.0311C85.1884 50.2919 85.4915 50.6396 85.6647 51.1178C85.7514 51.3786 85.6647 51.5525 85.4049 51.6394L84.8852 51.8133C84.6254 51.9002 84.4522 51.8133 84.3656 51.5525C84.1923 51.0308 83.7593 50.77 83.1097 50.77C82.2436 50.77 81.8105 51.1612 81.8105 51.9002V53.639C81.8105 53.9867 81.9404 54.2476 82.157 54.4649C82.3735 54.6823 82.6766 54.7692 83.1097 54.7692C83.7593 54.7692 84.1923 54.5084 84.3656 53.9433C84.4089 53.8129 84.4955 53.7259 84.5821 53.7259C84.6254 53.6825 84.7553 53.6825 84.8852 53.7259L85.4049 53.8998C85.708 53.9867 85.7514 54.1606 85.6647 54.4214C85.275 55.4212 84.3656 55.9429 83.0664 55.9429C82.2003 55.9429 81.5507 55.7255 81.1176 55.3343C80.6846 54.8996 80.468 54.3345 80.468 53.5521ZM89.1725 49.7702H93.5897C93.7196 49.7702 93.8063 49.8137 93.8929 49.8572C93.9362 49.9006 93.9362 49.9876 93.9362 50.118V50.6396C93.9362 50.77 93.9362 50.9004 93.8929 50.9439C93.8063 50.9874 93.7196 51.0308 93.5897 51.0308H92.074V55.4212C92.074 55.5516 92.0307 55.6386 91.9874 55.682C91.9441 55.7255 91.8142 55.769 91.6843 55.769H91.078C90.9481 55.769 90.8181 55.7255 90.7748 55.682C90.7315 55.6386 90.6882 55.5516 90.6882 55.4212V51.0308H89.1725C89.0426 51.0308 88.9127 50.9874 88.8694 50.9439C88.8261 50.9004 88.7828 50.77 88.7828 50.6396V50.118C88.7828 49.9876 88.8261 49.9006 88.8694 49.8572C88.9127 49.8137 89.0426 49.7702 89.1725 49.7702ZM97.2707 50.8135C97.7038 49.9876 98.4833 49.5964 99.6959 49.5964C101.385 49.5964 102.208 50.3788 102.208 51.9872V54.9865C102.208 55.1604 102.208 55.3343 102.121 55.4212C102.078 55.5082 101.948 55.5516 101.775 55.6386C101.298 55.8559 100.605 55.9429 99.6959 55.9429C98.6565 55.9429 98.0069 55.769 97.6172 55.4647C97.2274 55.1604 97.0542 54.7257 97.0542 54.0737C97.0542 53.3782 97.2707 52.9 97.6605 52.6392C98.0935 52.3349 98.7431 52.2045 99.7392 52.2045C99.7392 52.2045 100.129 52.2045 100.865 52.248V51.9437C100.865 51.5525 100.779 51.2482 100.562 51.0743C100.389 50.9004 100.086 50.8135 99.6959 50.8135C99.0896 50.8135 98.6998 50.9874 98.44 51.3351C98.3534 51.4655 98.2668 51.5525 98.2235 51.5525C98.1801 51.5959 98.0502 51.5525 97.9203 51.509L97.4873 51.3351C97.2274 51.2047 97.1408 51.0308 97.2707 50.8135ZM100.865 54.5953V53.3782C100.605 53.3347 100.389 53.3347 100.172 53.3347C99.9557 53.3347 99.8258 53.3347 99.7392 53.2912C99.6092 53.2912 99.5659 53.2912 99.5659 53.2912C99.1762 53.2912 98.873 53.3782 98.6998 53.4651C98.5266 53.5955 98.44 53.8129 98.44 54.0737C98.44 54.3345 98.5266 54.5084 98.6998 54.6388C98.8297 54.7692 99.1329 54.8127 99.5659 54.8127C100.042 54.8127 100.432 54.8127 100.735 54.7257C100.822 54.6823 100.865 54.6388 100.865 54.5953ZM111.042 51.4221C111.042 51.9872 110.869 52.3784 110.479 52.6392C110.999 52.9435 111.259 53.4216 111.259 54.0737C111.259 54.5953 111.129 54.9865 110.782 55.2908C110.436 55.5951 110.003 55.769 109.396 55.769H106.452C106.278 55.769 106.192 55.7255 106.148 55.682C106.105 55.6386 106.062 55.5516 106.062 55.4212V50.118C106.062 49.9876 106.105 49.9006 106.148 49.8572C106.192 49.8137 106.278 49.7702 106.452 49.7702H109.266C109.829 49.7702 110.262 49.9441 110.566 50.2049C110.869 50.5092 111.042 50.9439 111.042 51.4221ZM107.448 52.161H109.007C109.223 52.161 109.396 52.1176 109.483 51.9872C109.613 51.8568 109.7 51.7263 109.7 51.5525C109.7 51.3351 109.613 51.2047 109.483 51.0743C109.396 50.9874 109.223 50.9004 109.007 50.9004H107.448V52.161ZM107.448 54.6388H109.137C109.353 54.6388 109.526 54.5518 109.656 54.4214C109.786 54.3345 109.873 54.1606 109.873 53.9433C109.873 53.7259 109.786 53.5521 109.656 53.4216C109.526 53.3347 109.353 53.2478 109.137 53.2478H107.448V54.6388ZM122.648 54.5084H123.211C123.341 54.5084 123.427 54.5518 123.471 54.5953C123.514 54.6388 123.557 54.7692 123.557 54.8996V57.0296C123.557 57.16 123.514 57.2469 123.471 57.2904C123.427 57.3339 123.341 57.3773 123.211 57.3773H122.605C122.475 57.3773 122.388 57.3339 122.302 57.2904C122.258 57.2469 122.215 57.16 122.215 57.0296V55.769H115.329C115.156 55.769 115.069 55.7255 115.026 55.682C114.983 55.6386 114.94 55.5516 114.94 55.4212V50.118C114.94 49.9876 114.983 49.9006 115.026 49.8572C115.069 49.8137 115.156 49.7702 115.329 49.7702H115.936C116.109 49.7702 116.195 49.8137 116.239 49.8572C116.282 49.9006 116.325 49.9876 116.325 50.118V54.5084H118.101V50.118C118.101 49.9876 118.144 49.9006 118.187 49.8572C118.274 49.8137 118.361 49.7702 118.491 49.7702H119.14C119.27 49.7702 119.357 49.8137 119.4 49.8572C119.443 49.9006 119.487 49.9876 119.487 50.118V54.5084H121.306V50.118C121.306 49.9876 121.306 49.9006 121.392 49.8572C121.435 49.8137 121.522 49.7702 121.652 49.7702H122.302C122.431 49.7702 122.518 49.8137 122.561 49.8572C122.648 49.9006 122.648 49.9876 122.648 50.118V54.5084ZM127.368 49.7702H128.018C128.148 49.7702 128.234 49.8137 128.321 49.8572C128.364 49.9006 128.408 49.9876 128.408 50.118V52.3349C128.408 52.9 128.321 53.4216 128.148 54.0302H128.191C128.321 53.639 128.538 53.2478 128.841 52.8565L130.919 49.9441C131.006 49.8572 131.136 49.7702 131.266 49.7702H131.915C132.045 49.7702 132.132 49.8137 132.175 49.8572C132.262 49.9006 132.262 49.9876 132.262 50.118V55.4212C132.262 55.5516 132.262 55.6386 132.175 55.682C132.132 55.7255 132.045 55.769 131.915 55.769H131.266C131.136 55.769 131.049 55.7255 131.006 55.682C130.919 55.6386 130.919 55.5516 130.919 55.4212V53.2478C130.919 52.6827 131.006 52.1176 131.179 51.5525H131.136C131.006 51.8568 130.746 52.248 130.443 52.6827L128.408 55.5951C128.278 55.7255 128.191 55.769 128.018 55.769H127.368C127.238 55.769 127.152 55.7255 127.109 55.682C127.065 55.6386 127.022 55.5516 127.022 55.4212V50.118C127.022 49.9876 127.065 49.9006 127.109 49.8572C127.152 49.8137 127.238 49.7702 127.368 49.7702ZM140.447 53.3347L141.443 55.3343C141.529 55.5082 141.573 55.5951 141.529 55.682C141.486 55.7255 141.399 55.769 141.226 55.769H140.62C140.403 55.769 140.273 55.7255 140.23 55.7255C140.144 55.682 140.057 55.5951 140.014 55.4212L139.277 53.8998C139.191 53.6825 139.061 53.5521 138.931 53.4651C138.758 53.3782 138.585 53.3347 138.325 53.3347H137.589V55.3778C137.589 55.5516 137.589 55.6386 137.502 55.682C137.459 55.7255 137.372 55.769 137.199 55.769H136.592C136.463 55.769 136.376 55.7255 136.289 55.682C136.246 55.6386 136.246 55.5516 136.246 55.3778V50.118C136.246 49.9876 136.246 49.9006 136.289 49.8572C136.376 49.8137 136.463 49.7702 136.592 49.7702H137.199C137.372 49.7702 137.459 49.8137 137.502 49.8572C137.589 49.9006 137.589 49.9876 137.589 50.118V52.0741H138.152H138.238L139.84 50.0311C139.927 49.9441 140.014 49.8572 140.1 49.8137C140.144 49.8137 140.317 49.7702 140.533 49.7702H141.096C141.486 49.7702 141.573 49.9006 141.356 50.2049L139.581 52.3349C139.884 52.5088 140.187 52.8131 140.447 53.3347ZM150.191 49.7702H154.651C154.781 49.7702 154.868 49.8137 154.911 49.8572C154.954 49.9006 154.998 49.9876 154.998 50.118V50.6396C154.998 50.77 154.954 50.9004 154.911 50.9439C154.868 50.9874 154.781 51.0308 154.651 51.0308H153.092V55.4212C153.092 55.5516 153.092 55.6386 153.005 55.682C152.962 55.7255 152.876 55.769 152.746 55.769H152.096C151.966 55.769 151.879 55.7255 151.836 55.682C151.75 55.6386 151.75 55.5516 151.75 55.4212V51.0308H150.191C150.061 51.0308 149.974 50.9874 149.931 50.9439C149.844 50.9004 149.844 50.77 149.844 50.6396V50.118C149.844 49.9876 149.844 49.9006 149.931 49.8572C149.974 49.8137 150.061 49.7702 150.191 49.7702ZM158.159 53.4651V52.1176C158.159 51.2917 158.375 50.6831 158.852 50.2484C159.328 49.8137 160.021 49.5964 160.887 49.5964C161.753 49.5964 162.446 49.8137 162.879 50.2484C163.356 50.6831 163.615 51.2917 163.615 51.9872V52.6827C163.615 53.0304 163.442 53.2043 163.052 53.2043H159.545V53.639C159.545 53.9867 159.631 54.291 159.891 54.5084C160.108 54.6823 160.411 54.7692 160.844 54.7692C161.493 54.7692 161.97 54.5953 162.23 54.1606C162.36 54.0302 162.446 53.9433 162.533 53.9433C162.576 53.9433 162.706 53.9433 162.836 54.0302L163.269 54.2476C163.529 54.378 163.572 54.5518 163.399 54.8127C162.966 55.5516 162.1 55.9429 160.844 55.9429C159.978 55.9429 159.285 55.7255 158.852 55.2908C158.375 54.8561 158.159 54.2476 158.159 53.4651ZM162.23 52.161V51.9002C162.23 51.5525 162.143 51.2482 161.883 51.0308C161.667 50.857 161.32 50.7266 160.887 50.7266C160.454 50.7266 160.108 50.857 159.891 51.0308C159.631 51.2482 159.545 51.5525 159.545 51.9002V52.161H162.23ZM167.643 49.7702H172.06C172.19 49.7702 172.277 49.8137 172.32 49.8572C172.406 49.9006 172.406 49.9876 172.406 50.118V55.4212C172.406 55.5516 172.406 55.6386 172.32 55.682C172.277 55.7255 172.19 55.769 172.06 55.769H171.41C171.281 55.769 171.194 55.7255 171.151 55.682C171.064 55.6386 171.064 55.5516 171.064 55.4212V51.0308H168.639V55.4212C168.639 55.5516 168.596 55.6386 168.552 55.682C168.509 55.7255 168.422 55.769 168.292 55.769H167.643C167.513 55.769 167.426 55.7255 167.34 55.682C167.296 55.6386 167.296 55.5516 167.296 55.4212V50.118C167.296 49.9876 167.296 49.9006 167.34 49.8572C167.426 49.8137 167.513 49.7702 167.643 49.7702ZM177.43 49.7702H181.154C181.328 49.7702 181.414 49.8137 181.457 49.8572C181.501 49.9006 181.544 49.9876 181.544 50.118V55.4212C181.544 55.5516 181.501 55.6386 181.457 55.682C181.414 55.7255 181.328 55.769 181.154 55.769H180.548C180.418 55.769 180.331 55.7255 180.245 55.682C180.202 55.6386 180.158 55.5516 180.158 55.4212V51.0308H178.383V51.9437C178.383 53.3347 178.209 54.291 177.82 54.8561C177.647 55.1604 177.473 55.3343 177.3 55.5082C177.127 55.6386 176.91 55.769 176.65 55.8994C176.434 55.9863 176.304 55.8994 176.217 55.7255L175.914 55.1169C175.784 54.9431 175.828 54.8127 176.044 54.6823C176.217 54.5953 176.347 54.5084 176.434 54.4649C176.477 54.378 176.607 54.2476 176.694 54.0737C176.954 53.6825 177.04 52.9435 177.04 51.8568V50.118C177.04 49.9876 177.084 49.9006 177.127 49.8572C177.213 49.8137 177.3 49.7702 177.43 49.7702ZM185.138 53.639V51.9002C185.138 51.2047 185.398 50.6396 185.875 50.2049C186.351 49.8137 187.001 49.5964 187.867 49.5964C188.733 49.5964 189.382 49.8137 189.859 50.2049C190.335 50.6396 190.595 51.2047 190.595 51.9002V53.639C190.595 54.3345 190.335 54.8996 189.859 55.3343C189.382 55.7255 188.733 55.9429 187.867 55.9429C187.001 55.9429 186.351 55.7255 185.875 55.3343C185.398 54.8996 185.138 54.3345 185.138 53.639ZM189.209 53.639V51.9002C189.209 51.5525 189.079 51.2917 188.863 51.1178C188.646 50.9004 188.3 50.8135 187.867 50.8135C187.434 50.8135 187.087 50.9004 186.871 51.1178C186.654 51.2917 186.524 51.5525 186.524 51.9002V53.639C186.524 53.9867 186.654 54.2476 186.871 54.4214C187.087 54.6388 187.434 54.7257 187.867 54.7257C188.3 54.7257 188.646 54.6388 188.863 54.4214C189.079 54.2476 189.209 53.9867 189.209 53.639ZM194.709 49.7702H195.315C195.489 49.7702 195.575 49.8137 195.618 49.8572C195.662 49.9006 195.705 49.9876 195.705 50.118V52.3349C195.705 52.9 195.618 53.4216 195.445 54.0302H195.489C195.618 53.639 195.878 53.2478 196.138 52.8565L198.217 49.9441C198.303 49.8572 198.433 49.7702 198.563 49.7702H199.213C199.343 49.7702 199.473 49.8137 199.516 49.8572C199.559 49.9006 199.559 49.9876 199.559 50.118V55.4212C199.559 55.5516 199.559 55.6386 199.516 55.682C199.473 55.7255 199.343 55.769 199.213 55.769H198.563C198.433 55.769 198.347 55.7255 198.303 55.682C198.26 55.6386 198.217 55.5516 198.217 55.4212V53.2478C198.217 52.6827 198.303 52.1176 198.477 51.5525H198.433C198.303 51.8568 198.087 52.248 197.74 52.6827L195.705 55.5951C195.618 55.7255 195.489 55.769 195.315 55.769H194.709C194.536 55.769 194.449 55.7255 194.406 55.682C194.363 55.6386 194.319 55.5516 194.319 55.4212V50.118C194.319 49.9876 194.363 49.9006 194.406 49.8572C194.449 49.8137 194.536 49.7702 194.709 49.7702ZM203.457 51.1178C203.587 50.6831 203.89 50.3353 204.366 50.0311C204.843 49.7702 205.406 49.5964 206.098 49.5964C207.701 49.5964 208.524 50.2049 208.524 51.4221C208.524 52.0306 208.307 52.4653 207.831 52.6392V52.6827C208.394 52.9435 208.654 53.4216 208.654 54.1172C208.654 55.3343 207.831 55.9429 206.098 55.9429C205.406 55.9429 204.843 55.8125 204.366 55.5082C203.89 55.2474 203.543 54.8561 203.37 54.4214C203.24 54.1606 203.327 53.9867 203.63 53.8998L204.106 53.7259C204.28 53.6825 204.366 53.6825 204.453 53.7259C204.539 53.7694 204.583 53.8563 204.626 53.9867C204.886 54.5084 205.362 54.7692 206.142 54.7692C206.878 54.7692 207.268 54.5084 207.268 53.9867C207.268 53.5086 207.008 53.2912 206.488 53.2912H205.362C205.232 53.2912 205.146 53.2478 205.102 53.2043C205.016 53.1608 205.016 53.0739 205.016 52.9435V52.5523C205.016 52.4219 205.016 52.3349 205.102 52.248C205.146 52.2045 205.232 52.2045 205.362 52.2045H206.402C206.618 52.2045 206.835 52.1176 206.965 52.0306C207.095 51.9002 207.138 51.7698 207.138 51.5525C207.138 51.0308 206.791 50.77 206.098 50.77C205.752 50.77 205.449 50.857 205.232 50.9874C205.016 51.1612 204.843 51.3351 204.756 51.5525C204.669 51.6829 204.626 51.7698 204.539 51.8133C204.453 51.8568 204.366 51.8568 204.236 51.7698L203.673 51.6394C203.414 51.5525 203.37 51.3786 203.457 51.1178ZM211.988 53.639V51.9002C211.988 51.2047 212.248 50.6396 212.724 50.2049C213.157 49.8137 213.85 49.5964 214.716 49.5964C215.582 49.5964 216.232 49.8137 216.708 50.2049C217.185 50.6396 217.401 51.2047 217.401 51.9002V53.639C217.401 54.3345 217.185 54.8996 216.708 55.3343C216.232 55.7255 215.582 55.9429 214.716 55.9429C213.85 55.9429 213.157 55.7255 212.724 55.3343C212.248 54.8996 211.988 54.3345 211.988 53.639ZM216.059 53.639V51.9002C216.059 51.5525 215.929 51.2917 215.712 51.1178C215.453 50.9004 215.149 50.8135 214.716 50.8135C214.283 50.8135 213.937 50.9004 213.72 51.1178C213.461 51.2917 213.374 51.5525 213.374 51.9002V53.639C213.374 53.9867 213.461 54.2476 213.72 54.4214C213.937 54.6388 214.283 54.7257 214.716 54.7257C215.149 54.7257 215.453 54.6388 215.712 54.4214C215.929 54.2476 216.059 53.9867 216.059 53.639ZM222.208 49.7702H225.976C226.106 49.7702 226.192 49.8137 226.236 49.8572C226.322 49.9006 226.322 49.9876 226.322 50.118V55.4212C226.322 55.5516 226.322 55.6386 226.236 55.682C226.192 55.7255 226.106 55.769 225.976 55.769H225.326C225.196 55.769 225.11 55.7255 225.066 55.682C224.98 55.6386 224.98 55.5516 224.98 55.4212V51.0308H223.161V51.9437C223.161 53.3347 222.988 54.291 222.598 54.8561C222.425 55.1604 222.252 55.3343 222.078 55.5082C221.905 55.6386 221.689 55.769 221.429 55.8994C221.256 55.9863 221.082 55.8994 220.996 55.7255L220.693 55.1169C220.606 54.9431 220.649 54.8127 220.823 54.6823C220.996 54.5953 221.126 54.5084 221.212 54.4649C221.299 54.378 221.385 54.2476 221.515 54.0737C221.732 53.6825 221.862 52.9435 221.862 51.8568V50.118C221.862 49.9876 221.862 49.9006 221.948 49.8572C221.992 49.8137 222.078 49.7702 222.208 49.7702ZM232.039 49.7702H234.68C234.854 49.7702 234.94 49.8137 234.984 49.8572C235.027 49.9006 235.07 49.9876 235.07 50.118V55.4212C235.07 55.5516 235.027 55.6386 234.984 55.682C234.94 55.7255 234.854 55.769 234.68 55.769H234.074C233.944 55.769 233.858 55.7255 233.771 55.682C233.728 55.6386 233.684 55.5516 233.684 55.4212V53.8563H232.515L231.519 55.4647C231.432 55.5951 231.346 55.682 231.303 55.7255C231.216 55.769 231.086 55.769 230.869 55.769H230.263C230.09 55.769 229.96 55.7255 229.917 55.682C229.873 55.5951 229.917 55.4647 230.003 55.3343L231.129 53.639C230.35 53.3347 229.96 52.7261 229.96 51.8133C229.96 51.1612 230.133 50.6831 230.523 50.3353C230.869 49.9441 231.389 49.7702 232.039 49.7702ZM233.684 50.9874H232.212C231.952 50.9874 231.779 51.0743 231.606 51.2047C231.432 51.3786 231.389 51.5525 231.389 51.8133C231.389 52.0306 231.432 52.248 231.606 52.3784C231.779 52.5523 231.952 52.6392 232.212 52.6392H233.684V50.9874ZM244.078 54.5084H244.597C244.727 54.5084 244.814 54.5518 244.901 54.5953C244.944 54.6388 244.944 54.7692 244.944 54.8996V57.0296C244.944 57.16 244.944 57.2469 244.901 57.2904C244.814 57.3339 244.727 57.3773 244.597 57.3773H243.991C243.861 57.3773 243.775 57.3339 243.731 57.2904C243.688 57.2469 243.645 57.16 243.645 57.0296V55.769H239.314C239.184 55.769 239.098 55.7255 239.054 55.682C239.011 55.6386 238.968 55.5516 238.968 55.4212V50.118C238.968 49.9876 239.011 49.9006 239.054 49.8572C239.098 49.8137 239.184 49.7702 239.314 49.7702H239.964C240.094 49.7702 240.224 49.8137 240.267 49.8572C240.31 49.9006 240.353 49.9876 240.353 50.118V54.5084H242.692V50.118C242.692 49.9876 242.735 49.9006 242.779 49.8572C242.822 49.8137 242.909 49.7702 243.038 49.7702H243.688C243.818 49.7702 243.948 49.8137 243.991 49.8572C244.034 49.9006 244.078 49.9876 244.078 50.118V54.5084ZM248.798 49.7702H249.448C249.578 49.7702 249.664 49.8137 249.708 49.8572C249.751 49.9006 249.794 49.9876 249.794 50.118V52.3349C249.794 52.9 249.708 53.4216 249.534 54.0302H249.578C249.708 53.639 249.967 53.2478 250.227 52.8565L252.306 49.9441C252.393 49.8572 252.522 49.7702 252.652 49.7702H253.302C253.432 49.7702 253.562 49.8137 253.605 49.8572C253.648 49.9006 253.692 49.9876 253.692 50.118V55.4212C253.692 55.5516 253.648 55.6386 253.605 55.682C253.562 55.7255 253.432 55.769 253.302 55.769H252.652C252.522 55.769 252.436 55.7255 252.393 55.682C252.349 55.6386 252.306 55.5516 252.306 55.4212V53.2478C252.306 52.6827 252.393 52.1176 252.566 51.5525H252.522C252.393 51.8568 252.176 52.248 251.83 52.6827L249.794 55.5951C249.708 55.7255 249.578 55.769 249.448 55.769H248.798C248.625 55.769 248.538 55.7255 248.495 55.682C248.452 55.6386 248.408 55.5516 248.408 55.4212V50.118C248.408 49.9876 248.452 49.9006 248.495 49.8572C248.538 49.8137 248.625 49.7702 248.798 49.7702ZM257.979 49.7702H258.629C258.758 49.7702 258.845 49.8137 258.932 49.8572C258.975 49.9006 258.975 49.9876 258.975 50.118V52.3349C258.975 52.9 258.932 53.4216 258.758 54.0302H258.802C258.932 53.639 259.148 53.2478 259.451 52.8565L261.53 49.9441C261.617 49.8572 261.747 49.7702 261.877 49.7702H262.526C262.656 49.7702 262.743 49.8137 262.786 49.8572C262.829 49.9006 262.873 49.9876 262.873 50.118V55.4212C262.873 55.5516 262.829 55.6386 262.786 55.682C262.743 55.7255 262.656 55.769 262.526 55.769H261.877C261.747 55.769 261.66 55.7255 261.573 55.682C261.53 55.6386 261.53 55.5516 261.53 55.4212V53.2478C261.53 52.6827 261.617 52.1176 261.79 51.5525H261.747C261.573 51.8568 261.357 52.248 261.054 52.6827L258.975 55.5951C258.888 55.7255 258.758 55.769 258.629 55.769H257.979C257.849 55.769 257.762 55.7255 257.719 55.682C257.676 55.6386 257.633 55.5516 257.633 55.4212V50.118C257.633 49.9876 257.676 49.9006 257.719 49.8572C257.762 49.8137 257.849 49.7702 257.979 49.7702ZM55.5671 47.8576L263.479 47.249H263.522C264.345 47.2925 265.081 47.8141 265.341 48.5531L267.896 55.769C268.069 56.2471 268.026 56.7688 267.766 57.2035C267.506 57.6382 267.073 57.899 266.554 57.9424H266.424L43.0517 57.9859C47.9453 55.9429 52.3192 52.5088 55.5671 47.8576Z" fill="#222222"/>
<path fill-rule="evenodd" clip-rule="evenodd" d="M44.1822 4.38954C57.7369 12.8226 61.851 30.7319 53.4497 44.3377C46.1743 56.0744 31.8833 60.7691 19.4112 56.3787C15.5137 55.0311 12.0925 52.9011 9.23432 50.2495C9.19102 50.2061 9.19102 50.2061 9.14771 50.1626C9.0611 50.0756 8.97449 49.9887 8.88788 49.9018C6.54936 47.6414 4.6439 45.0767 3.2148 42.2512C3.1715 42.2077 3.12819 42.1208 3.08488 42.0339C3.04158 41.9469 3.04158 41.9034 2.99827 41.86C2.95497 41.7296 2.86835 41.5557 2.78174 41.4253V41.3818C0.746364 37.0784 -0.249672 32.2533 0.0534698 27.2978C0.0534698 27.2543 0.0534698 27.2109 0.0534698 27.1239C0.0967757 26.9935 0.0967757 26.8631 0.0967757 26.6892C0.0967757 26.6023 0.0967757 26.5154 0.140082 26.4284C0.140082 26.385 0.140082 26.298 0.140082 26.2111C0.573141 21.9076 1.95893 17.6042 4.38406 13.6919C12.7854 0.086096 30.6274 -4.08695 44.1822 4.38954ZM19.4112 45.2506C20.6671 45.9895 22.0096 46.5546 23.4387 47.0328C33.3557 50.0322 43.8358 44.4247 46.8672 34.4702C49.8553 24.5158 44.2688 13.9962 34.3518 10.9969C24.4347 7.95402 13.9547 13.605 10.9666 23.516C10.8799 23.8203 10.7933 24.1246 10.7067 24.4288C10.7067 24.5158 10.6634 24.5592 10.6634 24.6027C10.2737 26.2111 10.1437 27.8194 10.1437 29.3843V30.0364C10.4902 36.209 13.8681 41.9904 19.4112 45.2506Z" fill="#222222"/>
<path d="M79.3502 7.30275H64.8427C63.1538 7.30275 62.5908 7.86785 62.5908 9.51967V42.5128C62.5908 44.1646 63.1538 44.7297 64.8427 44.7297H70.7756C72.4646 44.7297 72.9842 44.1646 72.9842 42.5128V33.5147H79.4368C87.5783 33.5147 92.905 28.82 92.905 20.4739C92.905 12.0844 87.535 7.30275 79.3502 7.30275ZM78.1809 24.2992H72.9842V16.5182H78.1809C80.6494 16.5182 82.1218 18.1266 82.1218 20.4304C82.1218 22.7343 80.6494 24.2992 78.1809 24.2992ZM126.121 7.25928H119.798C118.585 7.25928 118.066 7.56356 117.589 8.30254L110.444 20.6043C108.192 24.4296 107.499 26.2118 105.42 31.5585H105.031C106.72 25.951 106.979 24.2992 106.979 18.5178V9.51967C106.979 7.86785 106.46 7.30275 104.771 7.30275H98.8379C97.1489 7.30275 96.586 7.86785 96.586 9.51967V42.5128C96.586 44.1646 97.1489 44.7297 98.8379 44.7297H105.204C106.33 44.7297 106.936 44.4689 107.369 43.6865L114.601 31.2977C116.853 27.429 117.589 25.8641 119.538 20.4304H119.971C118.542 26.1684 117.979 27.6029 117.979 33.5147V42.4693C117.979 44.1646 118.542 44.7297 120.231 44.7297H126.121C127.766 44.7297 128.373 44.1646 128.373 42.5128V9.51967C128.373 7.82438 127.766 7.25928 126.121 7.25928ZM159.033 7.25928H135.864C134.175 7.25928 133.613 7.82438 133.613 9.51967V42.6432C133.613 44.2081 134.262 44.7297 135.821 44.7297H151.541C158.946 44.7297 163.753 40.0785 163.753 32.6453C163.753 25.1251 158.946 20.5174 151.541 20.5174H144.006V15.8662H159.033C160.679 15.8662 161.242 15.3011 161.242 13.6492V9.51967C161.242 7.82438 160.679 7.25928 159.033 7.25928ZM153.143 32.6018C153.143 34.9491 151.801 36.1663 149.333 36.1663H144.006V29.1243H149.333C151.801 29.1243 153.143 30.3414 153.143 32.6018ZM191.556 7.30275H169.556C167.868 7.30275 167.305 7.86785 167.305 9.51967V42.5128C167.305 44.1646 167.868 44.7297 169.556 44.7297H192.032C193.635 44.7297 194.241 44.1646 194.241 42.5128V37.7312C194.241 36.0359 193.635 35.5142 192.032 35.5142H177.698V30.4718H188.784C190.43 30.4718 191.036 29.8633 191.036 28.168V23.4298C191.036 21.8215 190.43 21.2129 188.784 21.2129H177.698V16.5182H191.556C193.245 16.5182 193.808 15.9531 193.808 14.2578V9.51967C193.808 7.86785 193.245 7.30275 191.556 7.30275ZM214.941 7.30275H200.434C198.745 7.30275 198.182 7.86785 198.182 9.51967V42.5128C198.182 44.1646 198.745 44.7297 200.434 44.7297H206.366C208.055 44.7297 208.575 44.1646 208.575 42.5128V33.5147H215.028C223.169 33.5147 228.496 28.82 228.496 20.4739C228.496 12.0844 223.126 7.30275 214.941 7.30275ZM213.772 24.2992H208.575V16.5182H213.772C216.24 16.5182 217.713 18.1266 217.713 20.4304C217.713 22.7343 216.24 24.2992 213.772 24.2992ZM262.144 42.5563L250.019 9.04151C249.499 7.69397 248.806 7.30275 247.291 7.30275H241.314C239.799 7.30275 239.106 7.60703 238.586 9.12845L226.504 42.5563C225.984 43.9907 226.287 44.7297 227.933 44.7297H233.433C236.074 44.7297 236.724 44.1646 237.287 42.5128L238.499 38.731H249.802L251.015 42.5128C251.448 44.1646 252.227 44.7297 254.956 44.7297H260.629C262.188 44.7297 262.664 43.9907 262.144 42.5563ZM245.515 24.2992L247.464 30.4718H240.881L242.83 24.2123C243.869 20.6913 243.826 16.9094 243.826 16.9094H244.346C244.346 16.9094 244.476 20.6913 245.515 24.2992Z" fill="#222222"/>
<path fill-rule="evenodd" clip-rule="evenodd" d="M31.6637 19.8643C36.6872 21.4292 39.502 26.7325 37.9863 31.7749C36.4706 36.8173 31.144 39.6428 26.1638 38.1214C21.1403 36.6 18.2821 31.2533 19.7979 26.2543C21.3569 21.2119 26.6402 18.3429 31.6637 19.8643Z" fill="#E84E22"/>
</svg>
