<svg width="299" height="65" viewBox="0 0 299 65" fill="none" xmlns="http://www.w3.org/2000/svg">
<path fill-rule="evenodd" clip-rule="evenodd" d="M43.1082 53.5665H45.1836C44.0253 54.1964 42.7221 54.6808 41.4189 55.0684L43.1082 53.5665ZM70.1366 55.6498H75.0597C75.2045 55.6498 75.301 55.6982 75.3975 55.7467C75.4458 55.7951 75.4458 55.892 75.4458 56.0373V61.9479C75.4458 62.0932 75.4458 62.1901 75.3975 62.2386C75.301 62.287 75.2045 62.3355 75.0597 62.3355H74.3357C74.1909 62.3355 74.0944 62.287 74.0461 62.2386C73.9978 62.1901 73.9496 62.0932 73.9496 61.9479V57.0547H71.2467V61.9479C71.2467 62.0932 71.2467 62.1901 71.1502 62.2386C71.1019 62.287 71.0054 62.3355 70.8606 62.3355H70.1366C69.9918 62.3355 69.8953 62.287 69.8471 62.2386C69.7505 62.1901 69.7505 62.0932 69.7505 61.9479V56.0373C69.7505 55.892 69.7505 55.7951 69.8471 55.7467C69.8953 55.6982 69.9918 55.6498 70.1366 55.6498ZM79.6449 59.9616V58.0237C79.6449 57.2485 79.9344 56.6187 80.4171 56.1342C80.948 55.6982 81.7202 55.456 82.6856 55.456C83.6509 55.456 84.3748 55.6982 84.9057 56.1342C85.4367 56.6187 85.678 57.2485 85.678 58.0237V59.9616C85.678 60.7367 85.4367 61.3665 84.9057 61.851C84.3748 62.287 83.6509 62.5292 82.6856 62.5292C81.7202 62.5292 80.948 62.287 80.4171 61.851C79.9344 61.3665 79.6449 60.7367 79.6449 59.9616ZM84.1818 59.9616V58.0237C84.1818 57.6361 84.037 57.3454 83.7956 57.1516C83.5061 56.9094 83.1682 56.8125 82.6856 56.8125C82.2029 56.8125 81.8168 56.9094 81.5755 57.1516C81.2859 57.3454 81.1893 57.6361 81.1893 58.0237V59.9616C81.1893 60.3491 81.2859 60.6398 81.5755 60.8336C81.8168 61.0758 82.2029 61.1727 82.6856 61.1727C83.1682 61.1727 83.5061 61.0758 83.7956 60.8336C84.037 60.6398 84.1818 60.3491 84.1818 59.9616ZM89.684 59.8647V58.1206C89.684 57.2485 89.9253 56.6187 90.408 56.1342C90.9389 55.6982 91.6628 55.456 92.6764 55.456C93.4004 55.456 93.9796 55.6013 94.4622 55.9405C94.9449 56.2311 95.2827 56.6187 95.4758 57.1516C95.5723 57.4423 95.4758 57.6361 95.1862 57.733L94.607 57.9268C94.3174 58.0237 94.1244 57.9268 94.0278 57.6361C93.8348 57.0547 93.3521 56.764 92.6281 56.764C91.6628 56.764 91.1802 57.2001 91.1802 58.0237V59.9616C91.1802 60.3491 91.325 60.6398 91.5663 60.882C91.8076 61.1243 92.1455 61.2212 92.6281 61.2212C93.3521 61.2212 93.8348 60.9305 94.0278 60.3007C94.0761 60.1553 94.1726 60.0584 94.2692 60.0584C94.3174 60.01 94.4622 60.01 94.607 60.0584L95.1862 60.2522C95.5241 60.3491 95.5723 60.5429 95.4758 60.8336C95.0414 61.9479 94.0278 62.5292 92.5799 62.5292C91.6146 62.5292 90.8906 62.287 90.408 61.851C89.9253 61.3665 89.684 60.7367 89.684 59.8647ZM99.3853 55.6498H104.308C104.453 55.6498 104.55 55.6982 104.646 55.7467C104.694 55.7951 104.694 55.892 104.694 56.0373V56.6187C104.694 56.764 104.694 56.9094 104.646 56.9578C104.55 57.0063 104.453 57.0547 104.308 57.0547H102.619V61.9479C102.619 62.0932 102.571 62.1901 102.522 62.2386C102.474 62.287 102.329 62.3355 102.185 62.3355H101.509C101.364 62.3355 101.219 62.287 101.171 62.2386C101.123 62.1901 101.075 62.0932 101.075 61.9479V57.0547H99.3853C99.2405 57.0547 99.0957 57.0063 99.0474 56.9578C98.9991 56.9094 98.9509 56.764 98.9509 56.6187V56.0373C98.9509 55.892 98.9991 55.7951 99.0474 55.7467C99.0957 55.6982 99.2405 55.6498 99.3853 55.6498ZM108.411 56.8125C108.893 55.892 109.762 55.456 111.114 55.456C112.996 55.456 113.913 56.328 113.913 58.1206V61.4634C113.913 61.6572 113.913 61.851 113.816 61.9479C113.768 62.0448 113.623 62.0932 113.43 62.1901C112.899 62.4323 112.127 62.5292 111.114 62.5292C109.955 62.5292 109.231 62.3355 108.797 61.9963C108.363 61.6572 108.169 61.1727 108.169 60.446C108.169 59.6709 108.411 59.138 108.845 58.8473C109.328 58.5081 110.052 58.3628 111.162 58.3628C111.162 58.3628 111.596 58.3628 112.417 58.4112V58.0721C112.417 57.6361 112.32 57.297 112.079 57.1032C111.886 56.9094 111.548 56.8125 111.114 56.8125C110.438 56.8125 110.004 57.0063 109.714 57.3939C109.617 57.5392 109.521 57.6361 109.473 57.6361C109.424 57.6845 109.28 57.6361 109.135 57.5876L108.652 57.3939C108.363 57.2485 108.266 57.0547 108.411 56.8125ZM112.417 61.0274V59.6709C112.127 59.6224 111.886 59.6224 111.645 59.6224C111.403 59.6224 111.258 59.6224 111.162 59.574C111.017 59.574 110.969 59.574 110.969 59.574C110.534 59.574 110.197 59.6709 110.004 59.7678C109.811 59.9131 109.714 60.1553 109.714 60.446C109.714 60.7367 109.811 60.9305 110.004 61.0758C110.148 61.2212 110.486 61.2696 110.969 61.2696C111.5 61.2696 111.934 61.2696 112.272 61.1727C112.369 61.1243 112.417 61.0758 112.417 61.0274ZM123.759 57.4908C123.759 58.1206 123.566 58.5566 123.132 58.8473C123.711 59.1864 124 59.7193 124 60.446C124 61.0274 123.856 61.4634 123.47 61.8025C123.083 62.1417 122.601 62.3355 121.925 62.3355H118.643C118.45 62.3355 118.353 62.287 118.305 62.2386C118.257 62.1901 118.209 62.0932 118.209 61.9479V56.0373C118.209 55.892 118.257 55.7951 118.305 55.7467C118.353 55.6982 118.45 55.6498 118.643 55.6498H121.78C122.408 55.6498 122.89 55.8436 123.228 56.1342C123.566 56.4734 123.759 56.9578 123.759 57.4908ZM119.753 58.3144H121.491C121.732 58.3144 121.925 58.2659 122.022 58.1206C122.166 57.9752 122.263 57.8299 122.263 57.6361C122.263 57.3939 122.166 57.2485 122.022 57.1032C121.925 57.0063 121.732 56.9094 121.491 56.9094H119.753V58.3144ZM119.753 61.0758H121.635C121.877 61.0758 122.07 60.9789 122.215 60.8336C122.359 60.7367 122.456 60.5429 122.456 60.3007C122.456 60.0584 122.359 59.8647 122.215 59.7193C122.07 59.6224 121.877 59.5255 121.635 59.5255H119.753V61.0758ZM136.694 60.9305H137.322C137.466 60.9305 137.563 60.9789 137.611 61.0274C137.659 61.0758 137.708 61.2212 137.708 61.3665V63.7404C137.708 63.8858 137.659 63.9826 137.611 64.0311C137.563 64.0795 137.466 64.128 137.322 64.128H136.646C136.501 64.128 136.405 64.0795 136.308 64.0311C136.26 63.9826 136.211 63.8858 136.211 63.7404V62.3355H128.537C128.344 62.3355 128.248 62.287 128.199 62.2386C128.151 62.1901 128.103 62.0932 128.103 61.9479V56.0373C128.103 55.892 128.151 55.7951 128.199 55.7467C128.248 55.6982 128.344 55.6498 128.537 55.6498H129.213C129.406 55.6498 129.503 55.6982 129.551 55.7467C129.599 55.7951 129.647 55.892 129.647 56.0373V60.9305H131.626V56.0373C131.626 55.892 131.675 55.7951 131.723 55.7467C131.819 55.6982 131.916 55.6498 132.061 55.6498H132.785C132.929 55.6498 133.026 55.6982 133.074 55.7467C133.123 55.7951 133.171 55.892 133.171 56.0373V60.9305H135.198V56.0373C135.198 55.892 135.198 55.7951 135.294 55.7467C135.343 55.6982 135.439 55.6498 135.584 55.6498H136.308C136.453 55.6498 136.549 55.6982 136.598 55.7467C136.694 55.7951 136.694 55.892 136.694 56.0373V60.9305ZM141.955 55.6498H142.679C142.824 55.6498 142.92 55.6982 143.017 55.7467C143.065 55.7951 143.113 55.892 143.113 56.0373V58.5081C143.113 59.138 143.017 59.7193 142.824 60.3976H142.872C143.017 59.9616 143.258 59.5255 143.596 59.0895L145.913 55.8436C146.009 55.7467 146.154 55.6498 146.299 55.6498H147.023C147.168 55.6498 147.264 55.6982 147.312 55.7467C147.409 55.7951 147.409 55.892 147.409 56.0373V61.9479C147.409 62.0932 147.409 62.1901 147.312 62.2386C147.264 62.287 147.168 62.3355 147.023 62.3355H146.299C146.154 62.3355 146.058 62.287 146.009 62.2386C145.913 62.1901 145.913 62.0932 145.913 61.9479V59.5255C145.913 58.8957 146.009 58.2659 146.202 57.6361H146.154C146.009 57.9752 145.72 58.4112 145.382 58.8957L143.113 62.1417C142.969 62.287 142.872 62.3355 142.679 62.3355H141.955C141.81 62.3355 141.714 62.287 141.665 62.2386C141.617 62.1901 141.569 62.0932 141.569 61.9479V56.0373C141.569 55.892 141.617 55.7951 141.665 55.7467C141.714 55.6982 141.81 55.6498 141.955 55.6498ZM156.531 59.6224L157.641 61.851C157.738 62.0448 157.786 62.1417 157.738 62.2386C157.689 62.287 157.593 62.3355 157.4 62.3355H156.724C156.483 62.3355 156.338 62.287 156.29 62.287C156.193 62.2386 156.097 62.1417 156.048 61.9479L155.228 60.2522C155.131 60.01 154.987 59.8647 154.842 59.7678C154.649 59.6709 154.456 59.6224 154.166 59.6224H153.346V61.8994C153.346 62.0932 153.346 62.1901 153.249 62.2386C153.201 62.287 153.104 62.3355 152.911 62.3355H152.235C152.091 62.3355 151.994 62.287 151.898 62.2386C151.849 62.1901 151.849 62.0932 151.849 61.8994V56.0373C151.849 55.892 151.849 55.7951 151.898 55.7467C151.994 55.6982 152.091 55.6498 152.235 55.6498H152.911C153.104 55.6498 153.201 55.6982 153.249 55.7467C153.346 55.7951 153.346 55.892 153.346 56.0373V58.2175H153.973H154.07L155.855 55.9405C155.952 55.8436 156.048 55.7467 156.145 55.6982C156.193 55.6982 156.386 55.6498 156.628 55.6498H157.255C157.689 55.6498 157.786 55.7951 157.545 56.1342L155.566 58.5081C155.904 58.7019 156.241 59.0411 156.531 59.6224ZM167.391 55.6498H172.362C172.507 55.6498 172.603 55.6982 172.652 55.7467C172.7 55.7951 172.748 55.892 172.748 56.0373V56.6187C172.748 56.764 172.7 56.9094 172.652 56.9578C172.603 57.0063 172.507 57.0547 172.362 57.0547H170.624V61.9479C170.624 62.0932 170.624 62.1901 170.528 62.2386C170.48 62.287 170.383 62.3355 170.238 62.3355H169.514C169.37 62.3355 169.273 62.287 169.225 62.2386C169.128 62.1901 169.128 62.0932 169.128 61.9479V57.0547H167.391C167.246 57.0547 167.149 57.0063 167.101 56.9578C167.005 56.9094 167.005 56.764 167.005 56.6187V56.0373C167.005 55.892 167.005 55.7951 167.101 55.7467C167.149 55.6982 167.246 55.6498 167.391 55.6498ZM176.271 59.7678V58.2659C176.271 57.3454 176.513 56.6672 177.044 56.1827C177.575 55.6982 178.347 55.456 179.312 55.456C180.277 55.456 181.05 55.6982 181.532 56.1827C182.063 56.6672 182.353 57.3454 182.353 58.1206V58.8957C182.353 59.2833 182.16 59.4771 181.725 59.4771H177.816V59.9616C177.816 60.3491 177.912 60.6883 178.202 60.9305C178.443 61.1243 178.781 61.2212 179.264 61.2212C179.988 61.2212 180.519 61.0274 180.808 60.5429C180.953 60.3976 181.05 60.3007 181.146 60.3007C181.194 60.3007 181.339 60.3007 181.484 60.3976L181.967 60.6398C182.256 60.7851 182.305 60.9789 182.112 61.2696C181.629 62.0932 180.664 62.5292 179.264 62.5292C178.299 62.5292 177.526 62.287 177.044 61.8025C176.513 61.3181 176.271 60.6398 176.271 59.7678ZM180.808 58.3144V58.0237C180.808 57.6361 180.712 57.297 180.422 57.0547C180.181 56.8609 179.795 56.7156 179.312 56.7156C178.829 56.7156 178.443 56.8609 178.202 57.0547C177.912 57.297 177.816 57.6361 177.816 58.0237V58.3144H180.808ZM186.842 55.6498H191.765C191.909 55.6498 192.006 55.6982 192.054 55.7467C192.151 55.7951 192.151 55.892 192.151 56.0373V61.9479C192.151 62.0932 192.151 62.1901 192.054 62.2386C192.006 62.287 191.909 62.3355 191.765 62.3355H191.041C190.896 62.3355 190.799 62.287 190.751 62.2386C190.654 62.1901 190.654 62.0932 190.654 61.9479V57.0547H187.952V61.9479C187.952 62.0932 187.903 62.1901 187.855 62.2386C187.807 62.287 187.71 62.3355 187.565 62.3355H186.842C186.697 62.3355 186.6 62.287 186.504 62.2386C186.455 62.1901 186.455 62.0932 186.455 61.9479V56.0373C186.455 55.892 186.455 55.7951 186.504 55.7467C186.6 55.6982 186.697 55.6498 186.842 55.6498ZM197.749 55.6498H201.9C202.093 55.6498 202.19 55.6982 202.238 55.7467C202.286 55.7951 202.335 55.892 202.335 56.0373V61.9479C202.335 62.0932 202.286 62.1901 202.238 62.2386C202.19 62.287 202.093 62.3355 201.9 62.3355H201.224C201.08 62.3355 200.983 62.287 200.887 62.2386C200.838 62.1901 200.79 62.0932 200.79 61.9479V57.0547H198.811V58.0721C198.811 59.6224 198.618 60.6883 198.184 61.3181C197.991 61.6572 197.798 61.851 197.605 62.0448C197.412 62.1901 197.17 62.3355 196.881 62.4808C196.639 62.5777 196.495 62.4808 196.398 62.287L196.06 61.6087C195.915 61.415 195.964 61.2696 196.205 61.1243C196.398 61.0274 196.543 60.9305 196.639 60.882C196.688 60.7851 196.832 60.6398 196.929 60.446C197.218 60.01 197.315 59.1864 197.315 57.9752V56.0373C197.315 55.892 197.363 55.7951 197.412 55.7467C197.508 55.6982 197.605 55.6498 197.749 55.6498ZM206.341 59.9616V58.0237C206.341 57.2485 206.63 56.6187 207.161 56.1342C207.692 55.6982 208.416 55.456 209.381 55.456C210.347 55.456 211.071 55.6982 211.601 56.1342C212.132 56.6187 212.422 57.2485 212.422 58.0237V59.9616C212.422 60.7367 212.132 61.3665 211.601 61.851C211.071 62.287 210.347 62.5292 209.381 62.5292C208.416 62.5292 207.692 62.287 207.161 61.851C206.63 61.3665 206.341 60.7367 206.341 59.9616ZM210.877 59.9616V58.0237C210.877 57.6361 210.733 57.3454 210.491 57.1516C210.25 56.9094 209.864 56.8125 209.381 56.8125C208.899 56.8125 208.512 56.9094 208.271 57.1516C208.03 57.3454 207.885 57.6361 207.885 58.0237V59.9616C207.885 60.3491 208.03 60.6398 208.271 60.8336C208.512 61.0758 208.899 61.1727 209.381 61.1727C209.864 61.1727 210.25 61.0758 210.491 60.8336C210.733 60.6398 210.877 60.3491 210.877 59.9616ZM217.007 55.6498H217.683C217.876 55.6498 217.972 55.6982 218.021 55.7467C218.069 55.7951 218.117 55.892 218.117 56.0373V58.5081C218.117 59.138 218.021 59.7193 217.828 60.3976H217.876C218.021 59.9616 218.31 59.5255 218.6 59.0895L220.917 55.8436C221.013 55.7467 221.158 55.6498 221.303 55.6498H222.027C222.172 55.6498 222.316 55.6982 222.365 55.7467C222.413 55.7951 222.413 55.892 222.413 56.0373V61.9479C222.413 62.0932 222.413 62.1901 222.365 62.2386C222.316 62.287 222.172 62.3355 222.027 62.3355H221.303C221.158 62.3355 221.061 62.287 221.013 62.2386C220.965 62.1901 220.917 62.0932 220.917 61.9479V59.5255C220.917 58.8957 221.013 58.2659 221.206 57.6361H221.158C221.013 57.9752 220.772 58.4112 220.386 58.8957L218.117 62.1417C218.021 62.287 217.876 62.3355 217.683 62.3355H217.007C216.814 62.3355 216.718 62.287 216.669 62.2386C216.621 62.1901 216.573 62.0932 216.573 61.9479V56.0373C216.573 55.892 216.621 55.7951 216.669 55.7467C216.718 55.6982 216.814 55.6498 217.007 55.6498ZM226.757 57.1516C226.901 56.6672 227.239 56.2796 227.77 55.9405C228.301 55.6498 228.929 55.456 229.701 55.456C231.487 55.456 232.404 56.1342 232.404 57.4908C232.404 58.169 232.162 58.6535 231.631 58.8473V58.8957C232.259 59.1864 232.548 59.7193 232.548 60.4945C232.548 61.851 231.631 62.5292 229.701 62.5292C228.929 62.5292 228.301 62.3839 227.77 62.0448C227.239 61.7541 226.853 61.3181 226.66 60.8336C226.515 60.5429 226.612 60.3491 226.95 60.2522L227.481 60.0584C227.674 60.01 227.77 60.01 227.867 60.0584C227.963 60.1069 228.012 60.2038 228.06 60.3491C228.349 60.9305 228.88 61.2212 229.749 61.2212C230.57 61.2212 231.004 60.9305 231.004 60.3491C231.004 59.8162 230.714 59.574 230.135 59.574H228.88C228.736 59.574 228.639 59.5255 228.591 59.4771C228.494 59.4286 228.494 59.3317 228.494 59.1864V58.7504C228.494 58.605 228.494 58.5081 228.591 58.4112C228.639 58.3628 228.736 58.3628 228.88 58.3628H230.039C230.28 58.3628 230.521 58.2659 230.666 58.169C230.811 58.0237 230.859 57.8783 230.859 57.6361C230.859 57.0547 230.473 56.764 229.701 56.764C229.315 56.764 228.977 56.8609 228.736 57.0063C228.494 57.2001 228.301 57.3939 228.205 57.6361C228.108 57.7814 228.06 57.8783 227.963 57.9268C227.867 57.9752 227.77 57.9752 227.625 57.8783L226.998 57.733C226.708 57.6361 226.66 57.4423 226.757 57.1516ZM236.265 59.9616V58.0237C236.265 57.2485 236.554 56.6187 237.085 56.1342C237.568 55.6982 238.34 55.456 239.306 55.456C240.271 55.456 240.995 55.6982 241.526 56.1342C242.057 56.6187 242.298 57.2485 242.298 58.0237V59.9616C242.298 60.7367 242.057 61.3665 241.526 61.851C240.995 62.287 240.271 62.5292 239.306 62.5292C238.34 62.5292 237.568 62.287 237.085 61.851C236.554 61.3665 236.265 60.7367 236.265 59.9616ZM240.802 59.9616V58.0237C240.802 57.6361 240.657 57.3454 240.416 57.1516C240.126 56.9094 239.788 56.8125 239.306 56.8125C238.823 56.8125 238.437 56.9094 238.195 57.1516C237.906 57.3454 237.809 57.6361 237.809 58.0237V59.9616C237.809 60.3491 237.906 60.6398 238.195 60.8336C238.437 61.0758 238.823 61.1727 239.306 61.1727C239.788 61.1727 240.126 61.0758 240.416 60.8336C240.657 60.6398 240.802 60.3491 240.802 59.9616ZM247.655 55.6498H251.855C251.999 55.6498 252.096 55.6982 252.144 55.7467C252.241 55.7951 252.241 55.892 252.241 56.0373V61.9479C252.241 62.0932 252.241 62.1901 252.144 62.2386C252.096 62.287 251.999 62.3355 251.855 62.3355H251.131C250.986 62.3355 250.889 62.287 250.841 62.2386C250.744 62.1901 250.744 62.0932 250.744 61.9479V57.0547H248.717V58.0721C248.717 59.6224 248.524 60.6883 248.09 61.3181C247.897 61.6572 247.704 61.851 247.511 62.0448C247.318 62.1901 247.076 62.3355 246.787 62.4808C246.594 62.5777 246.401 62.4808 246.304 62.287L245.966 61.6087C245.87 61.415 245.918 61.2696 246.111 61.1243C246.304 61.0274 246.449 60.9305 246.545 60.882C246.642 60.7851 246.738 60.6398 246.883 60.446C247.125 60.01 247.269 59.1864 247.269 57.9752V56.0373C247.269 55.892 247.269 55.7951 247.366 55.7467C247.414 55.6982 247.511 55.6498 247.655 55.6498ZM258.612 55.6498H261.556C261.749 55.6498 261.845 55.6982 261.894 55.7467C261.942 55.7951 261.99 55.892 261.99 56.0373V61.9479C261.99 62.0932 261.942 62.1901 261.894 62.2386C261.845 62.287 261.749 62.3355 261.556 62.3355H260.88C260.735 62.3355 260.639 62.287 260.542 62.2386C260.494 62.1901 260.446 62.0932 260.446 61.9479V60.2038H259.143L258.032 61.9963C257.936 62.1417 257.839 62.2386 257.791 62.287C257.695 62.3355 257.55 62.3355 257.308 62.3355H256.633C256.44 62.3355 256.295 62.287 256.247 62.2386C256.198 62.1417 256.247 61.9963 256.343 61.851L257.598 59.9616C256.729 59.6224 256.295 58.9442 256.295 57.9268C256.295 57.2001 256.488 56.6672 256.922 56.2796C257.308 55.8436 257.888 55.6498 258.612 55.6498ZM260.446 57.0063H258.805C258.515 57.0063 258.322 57.1032 258.129 57.2485C257.936 57.4423 257.888 57.6361 257.888 57.9268C257.888 58.169 257.936 58.4112 258.129 58.5566C258.322 58.7504 258.515 58.8473 258.805 58.8473H260.446V57.0063ZM272.029 60.9305H272.608C272.753 60.9305 272.85 60.9789 272.946 61.0274C272.995 61.0758 272.995 61.2212 272.995 61.3665V63.7404C272.995 63.8858 272.995 63.9826 272.946 64.0311C272.85 64.0795 272.753 64.128 272.608 64.128H271.933C271.788 64.128 271.691 64.0795 271.643 64.0311C271.595 63.9826 271.547 63.8858 271.547 63.7404V62.3355H266.72C266.575 62.3355 266.479 62.287 266.431 62.2386C266.382 62.1901 266.334 62.0932 266.334 61.9479V56.0373C266.334 55.892 266.382 55.7951 266.431 55.7467C266.479 55.6982 266.575 55.6498 266.72 55.6498H267.444C267.589 55.6498 267.734 55.6982 267.782 55.7467C267.83 55.7951 267.878 55.892 267.878 56.0373V60.9305H270.485V56.0373C270.485 55.892 270.533 55.7951 270.581 55.7467C270.63 55.6982 270.726 55.6498 270.871 55.6498H271.595C271.74 55.6498 271.884 55.6982 271.933 55.7467C271.981 55.7951 272.029 55.892 272.029 56.0373V60.9305ZM277.29 55.6498H278.014C278.159 55.6498 278.255 55.6982 278.304 55.7467C278.352 55.7951 278.4 55.892 278.4 56.0373V58.5081C278.4 59.138 278.304 59.7193 278.111 60.3976H278.159C278.304 59.9616 278.593 59.5255 278.883 59.0895L281.2 55.8436C281.296 55.7467 281.441 55.6498 281.586 55.6498H282.31C282.455 55.6498 282.599 55.6982 282.648 55.7467C282.696 55.7951 282.744 55.892 282.744 56.0373V61.9479C282.744 62.0932 282.696 62.1901 282.648 62.2386C282.599 62.287 282.455 62.3355 282.31 62.3355H281.586C281.441 62.3355 281.344 62.287 281.296 62.2386C281.248 62.1901 281.2 62.0932 281.2 61.9479V59.5255C281.2 58.8957 281.296 58.2659 281.489 57.6361H281.441C281.296 57.9752 281.055 58.4112 280.669 58.8957L278.4 62.1417C278.304 62.287 278.159 62.3355 278.014 62.3355H277.29C277.097 62.3355 277.001 62.287 276.952 62.2386C276.904 62.1901 276.856 62.0932 276.856 61.9479V56.0373C276.856 55.892 276.904 55.7951 276.952 55.7467C277.001 55.6982 277.097 55.6498 277.29 55.6498ZM287.522 55.6498H288.246C288.391 55.6498 288.488 55.6982 288.584 55.7467C288.632 55.7951 288.632 55.892 288.632 56.0373V58.5081C288.632 59.138 288.584 59.7193 288.391 60.3976H288.439C288.584 59.9616 288.826 59.5255 289.163 59.0895L291.48 55.8436C291.577 55.7467 291.721 55.6498 291.866 55.6498H292.59C292.735 55.6498 292.832 55.6982 292.88 55.7467C292.928 55.7951 292.976 55.892 292.976 56.0373V61.9479C292.976 62.0932 292.928 62.1901 292.88 62.2386C292.832 62.287 292.735 62.3355 292.59 62.3355H291.866C291.721 62.3355 291.625 62.287 291.528 62.2386C291.48 62.1901 291.48 62.0932 291.48 61.9479V59.5255C291.48 58.8957 291.577 58.2659 291.77 57.6361H291.721C291.528 57.9752 291.287 58.4112 290.949 58.8957L288.632 62.1417C288.536 62.287 288.391 62.3355 288.246 62.3355H287.522C287.378 62.3355 287.281 62.287 287.233 62.2386C287.185 62.1901 287.136 62.0932 287.136 61.9479V56.0373C287.136 55.892 287.185 55.7951 287.233 55.7467C287.281 55.6982 287.378 55.6498 287.522 55.6498ZM61.9316 53.5181L293.652 52.8398H293.7C294.617 52.8883 295.438 53.4697 295.727 54.2933L298.575 62.3355C298.768 62.8684 298.72 63.4497 298.43 63.9342C298.141 64.4187 297.658 64.7094 297.079 64.7578H296.934L47.983 64.8062C53.4369 62.5292 58.3117 58.7019 61.9316 53.5181Z" fill="white"/>
<path fill-rule="evenodd" clip-rule="evenodd" d="M49.2417 5.0719C64.3486 14.4706 68.9338 34.4308 59.5704 49.5947C51.4618 62.6754 35.5344 67.9076 21.6341 63.0145C17.2902 61.5126 13.4773 59.1387 10.2918 56.1835C10.2435 56.135 10.2435 56.135 10.1952 56.0866C10.0987 55.9897 10.0022 55.8928 9.90566 55.7959C7.29935 53.2767 5.17569 50.4183 3.58294 47.2692C3.53467 47.2208 3.48641 47.1239 3.43814 47.027C3.38988 46.9301 3.38988 46.8817 3.34161 46.8332C3.29335 46.6879 3.19682 46.4941 3.10029 46.3487V46.3003C0.831833 41.504 -0.278262 36.1264 0.0595928 30.6035C0.0595928 30.555 0.0595928 30.5066 0.0595928 30.4097C0.107858 30.2643 0.107858 30.119 0.107858 29.9252C0.107858 29.8283 0.107858 29.7314 0.156123 29.6345C0.156123 29.5861 0.156123 29.4892 0.156123 29.3923C0.638773 24.596 2.18325 19.7998 4.8861 15.4396C14.2495 0.275643 34.1347 -4.37527 49.2417 5.0719ZM21.6341 50.6121C23.0337 51.4357 24.53 52.0655 26.1227 52.5984C37.1754 55.9412 48.8555 49.6916 52.2341 38.5972C55.5644 27.5029 49.3382 15.7787 38.2855 12.4358C27.2328 9.04455 15.5527 15.3427 12.2224 26.3886C12.1258 26.7277 12.0293 27.0668 11.9328 27.406C11.9328 27.5029 11.8845 27.5513 11.8845 27.5997C11.4501 29.3923 11.3053 31.1848 11.3053 32.9289V33.6556C11.6915 40.5351 15.4561 46.9785 21.6341 50.6121Z" fill="white"/>
<path d="M88.4364 8.31798H72.2676C70.3853 8.31798 69.7578 8.94779 69.7578 10.7888V47.56C69.7578 49.401 70.3853 50.0308 72.2676 50.0308H78.8799C80.7622 50.0308 81.3414 49.401 81.3414 47.56V37.5315H88.5329C97.6067 37.5315 103.543 32.2992 103.543 22.9974C103.543 13.6471 97.5585 8.31798 88.4364 8.31798ZM87.1332 27.2608H81.3414V18.5887H87.1332C89.8843 18.5887 91.5253 20.3813 91.5253 22.949C91.5253 25.5167 89.8843 27.2608 87.1332 27.2608ZM140.563 8.26953H133.516C132.165 8.26953 131.585 8.60866 131.054 9.43226L123.091 23.1428C120.581 27.4061 119.809 29.3924 117.492 35.3514H117.058C118.94 29.1017 119.229 27.2608 119.229 20.8173V10.7888C119.229 8.94779 118.65 8.31798 116.768 8.31798H110.156C108.273 8.31798 107.646 8.94779 107.646 10.7888V47.56C107.646 49.401 108.273 50.0308 110.156 50.0308H117.251C118.505 50.0308 119.181 49.7402 119.664 48.8681L127.724 35.0607C130.234 30.7489 131.054 29.0048 133.226 22.949H133.709C132.116 29.344 131.489 30.9427 131.489 37.5315V47.5116C131.489 49.401 132.116 50.0308 133.999 50.0308H140.563C142.397 50.0308 143.072 49.401 143.072 47.56V10.7888C143.072 8.89934 142.397 8.26953 140.563 8.26953ZM177.244 8.26953H151.422C149.54 8.26953 148.912 8.89934 148.912 10.7888V47.7054C148.912 49.4495 149.636 50.0308 151.374 50.0308H168.894C177.148 50.0308 182.505 44.847 182.505 36.5626C182.505 28.1812 177.148 23.0459 168.894 23.0459H160.496V17.862H177.244C179.078 17.862 179.706 17.2322 179.706 15.3912V10.7888C179.706 8.89934 179.078 8.26953 177.244 8.26953ZM170.68 36.5141C170.68 39.1303 169.184 40.4868 166.433 40.4868H160.496V32.6384H166.433C169.184 32.6384 170.68 33.9949 170.68 36.5141ZM213.491 8.31798H188.972C187.09 8.31798 186.463 8.94779 186.463 10.7888V47.56C186.463 49.401 187.09 50.0308 188.972 50.0308H214.022C215.808 50.0308 216.484 49.401 216.484 47.56V42.2309C216.484 40.3414 215.808 39.7601 214.022 39.7601H198.046V34.1402H210.402C212.236 34.1402 212.912 33.462 212.912 31.5725V26.2918C212.912 24.4993 212.236 23.821 210.402 23.821H198.046V18.5887H213.491C215.373 18.5887 216.001 17.9589 216.001 16.0695V10.7888C216.001 8.94779 215.373 8.31798 213.491 8.31798ZM239.554 8.31798H223.385C221.503 8.31798 220.876 8.94779 220.876 10.7888V47.56C220.876 49.401 221.503 50.0308 223.385 50.0308H229.998C231.88 50.0308 232.459 49.401 232.459 47.56V37.5315H239.651C248.725 37.5315 254.661 32.2992 254.661 22.9974C254.661 13.6471 248.676 8.31798 239.554 8.31798ZM238.251 27.2608H232.459V18.5887H238.251C241.002 18.5887 242.643 20.3813 242.643 22.949C242.643 25.5167 241.002 27.2608 238.251 27.2608ZM292.163 47.6085L278.649 10.2559C278.07 8.754 277.297 8.31798 275.608 8.31798H268.948C267.258 8.31798 266.486 8.65711 265.907 10.3528L252.441 47.6085C251.862 49.2072 252.2 50.0308 254.034 50.0308H260.163C263.108 50.0308 263.832 49.401 264.459 47.56L265.81 43.3452H278.408L279.759 47.56C280.242 49.401 281.11 50.0308 284.151 50.0308H290.474C292.211 50.0308 292.742 49.2072 292.163 47.6085ZM273.629 27.2608L275.801 34.1402H268.465L270.637 27.1639C271.795 23.2397 271.747 19.0248 271.747 19.0248H272.326C272.326 19.0248 272.471 23.2397 273.629 27.2608Z" fill="white"/>
<path fill-rule="evenodd" clip-rule="evenodd" d="M35.2887 22.3197C40.8875 24.0638 44.0247 29.9743 42.3354 35.5942C40.6461 41.214 34.7095 44.3631 29.1591 42.6675C23.5603 40.9718 20.3748 35.0128 22.0641 29.4414C23.8016 23.8216 29.69 20.6241 35.2887 22.3197Z" fill="#E84E22"/>
</svg>
