<svg width="1274" height="1278" viewBox="0 0 1274 1278" fill="none" xmlns="http://www.w3.org/2000/svg">
<path fill-rule="evenodd" clip-rule="evenodd" d="M973.784 96.7214C1272.53 282.539 1363.21 677.161 1178.04 976.959C1017.69 1235.57 702.714 1339.02 427.827 1242.28C341.924 1212.58 266.521 1165.65 203.526 1107.22C202.572 1106.26 202.572 1106.26 201.617 1105.31C199.708 1103.39 197.799 1101.48 195.89 1099.56C144.349 1049.75 102.352 993.242 70.8548 930.983C69.9003 930.026 68.9459 928.11 67.9914 926.194C67.0369 924.279 67.0369 923.321 66.0825 922.363C65.128 919.49 63.2191 915.658 61.3101 912.785V911.827C16.45 817.003 -5.50281 710.685 1.17848 601.493C1.17848 600.535 1.17848 599.577 1.17848 597.662C2.13295 594.788 2.13295 591.915 2.13295 588.083C2.13295 586.168 2.13295 584.252 3.08742 582.337C3.08742 581.379 3.08742 579.463 3.08742 577.547C12.6321 482.723 43.1752 387.899 96.6255 301.695C281.793 1.89708 675.035 -90.0537 973.784 96.7214ZM427.827 997.073C455.506 1013.36 485.095 1025.81 516.592 1036.34C735.166 1102.43 966.148 978.874 1032.96 759.533C1098.82 540.192 975.693 308.4 757.119 242.31C538.545 175.263 307.563 299.779 241.705 518.163C239.796 524.867 237.887 531.572 235.978 538.277C235.978 540.192 235.024 541.15 235.024 542.108C226.433 577.547 223.57 612.987 223.57 647.468V661.836C231.206 797.846 305.655 925.236 427.827 997.073Z" fill="white"/>
</svg>
