<svg width="23" height="23" viewBox="0 0 23 23" fill="none" xmlns="http://www.w3.org/2000/svg">
<path d="M11.4997 6.22931C10.1751 6.22931 9.10383 7.30054 9.10383 8.62516C9.10383 8.88979 8.8893 9.10431 8.62467 9.10431C8.36003 9.10431 8.14551 8.88979 8.14551 8.62516C8.14551 6.77127 9.64579 5.271 11.4997 5.271C13.3535 5.271 14.8538 6.7713 14.8538 8.62516C14.8538 10.3163 13.6053 11.7133 11.9788 11.9454V14.3752C11.9788 14.6397 11.7643 14.8543 11.4997 14.8543C11.2351 14.8543 11.0205 14.6397 11.0205 14.3752V11.5002C11.0205 11.2356 11.2351 11.021 11.4997 11.021C12.8243 11.021 13.8955 9.94977 13.8955 8.62516C13.8955 7.30054 12.8243 6.22931 11.4997 6.22931ZM11.4997 17.6047C12.029 17.6047 12.458 17.1757 12.458 16.6464C12.458 16.1171 12.029 15.6881 11.4997 15.6881C10.9704 15.6881 10.5413 16.1171 10.5413 16.6464C10.5413 17.1757 10.9704 17.6047 11.4997 17.6047Z" fill="#C8C8C8"/>
<path d="M11.5003 1.9165C6.20759 1.9165 1.91699 6.2071 1.91699 11.4998C1.91699 16.7925 6.20759 21.0832 11.5003 21.0832C16.793 21.0832 21.0837 16.7925 21.0837 11.4998C21.0837 6.2071 16.793 1.9165 11.5003 1.9165ZM2.87533 11.4998C2.87533 6.7364 6.73688 2.87484 11.5003 2.87484C16.2638 2.87484 20.1253 6.7364 20.1253 11.4998C20.1253 16.2633 16.2638 20.1248 11.5003 20.1248C6.73688 20.1248 2.87533 16.2633 2.87533 11.4998Z" fill="#C8C8C8"/>
</svg>
