<svg width="23" height="23" viewBox="0 0 23 23" fill="none" xmlns="http://www.w3.org/2000/svg">
<path d="M20.5759 10.7188L19.5888 9.34842C19.3678 9.03813 19.0761 8.78498 18.7378 8.60998C18.3995 8.43498 18.0243 8.34317 17.6434 8.34217H13.4459V6.29134C13.4459 5.65593 13.1934 5.04654 12.7441 4.59723C12.2948 4.14793 11.6854 3.89551 11.05 3.89551H4.37044C3.73557 3.89728 3.12721 4.15026 2.67829 4.59919C2.22937 5.04811 1.97638 5.65647 1.97461 6.29134V15.8172C1.97461 16.1984 2.12606 16.5641 2.39564 16.8336C2.66523 17.1032 3.03086 17.2547 3.41211 17.2547H4.58128C4.65364 17.7674 4.90874 18.2368 5.29965 18.5764C5.69055 18.916 6.19095 19.103 6.70878 19.103C7.2266 19.103 7.727 18.916 8.1179 18.5764C8.50881 18.2368 8.76391 17.7674 8.83628 17.2547H14.1646C14.237 17.7674 14.4921 18.2368 14.883 18.5764C15.2739 18.916 15.7743 19.103 16.2921 19.103C16.8099 19.103 17.3103 18.916 17.7012 18.5764C18.0921 18.2368 18.3472 17.7674 18.4196 17.2547H19.5888C19.97 17.2547 20.3357 17.1032 20.6052 16.8336C20.8748 16.5641 21.0263 16.1984 21.0263 15.8172V12.1084C21.0239 11.6097 20.8665 11.1241 20.5759 10.7188ZM6.70878 18.1459C6.47185 18.1459 6.24025 18.0757 6.04325 17.944C5.84625 17.8124 5.69271 17.6253 5.60205 17.4064C5.51138 17.1875 5.48765 16.9467 5.53388 16.7143C5.5801 16.4819 5.69419 16.2685 5.86172 16.101C6.02925 15.9334 6.2427 15.8193 6.47507 15.7731C6.70745 15.7269 6.94831 15.7506 7.1672 15.8413C7.38609 15.9319 7.57318 16.0855 7.70481 16.2825C7.83644 16.4795 7.90669 16.7111 7.90669 16.948C7.90669 17.2657 7.78048 17.5704 7.55583 17.7951C7.33118 18.0197 7.02648 18.1459 6.70878 18.1459ZM12.4875 16.2963H8.76919C8.62966 15.8595 8.35487 15.4782 7.98451 15.2077C7.61415 14.9372 7.1674 14.7915 6.70878 14.7915C6.25015 14.7915 5.8034 14.9372 5.43304 15.2077C5.06269 15.4782 4.7879 15.8595 4.64836 16.2963H3.41211C3.28503 16.2963 3.16315 16.2459 3.07329 16.156C2.98343 16.0661 2.93294 15.9443 2.93294 15.8172V6.29134C2.93294 5.91009 3.08439 5.54446 3.35398 5.27487C3.62356 5.00529 3.98919 4.85384 4.37044 4.85384H11.05C11.4313 4.85384 11.7969 5.00529 12.0665 5.27487C12.3361 5.54446 12.4875 5.91009 12.4875 6.29134V16.2963ZM16.2921 18.1459C16.0552 18.1459 15.8236 18.0757 15.6266 17.944C15.4296 17.8124 15.276 17.6253 15.1854 17.4064C15.0947 17.1875 15.071 16.9467 15.1172 16.7143C15.1634 16.4819 15.2775 16.2685 15.4451 16.101C15.6126 15.9334 15.826 15.8193 16.0584 15.7731C16.2908 15.7269 16.5316 15.7506 16.7505 15.8413C16.9694 15.9319 17.1565 16.0855 17.2881 16.2825C17.4198 16.4795 17.49 16.7111 17.49 16.948C17.49 17.2657 17.3638 17.5704 17.1392 17.7951C16.9145 18.0197 16.6098 18.1459 16.2921 18.1459ZM20.0679 15.8172C20.0679 15.9443 20.0175 16.0661 19.9276 16.156C19.8377 16.2459 19.7159 16.2963 19.5888 16.2963H18.3525C18.213 15.8595 17.9382 15.4782 17.5678 15.2077C17.1975 14.9372 16.7507 14.7915 16.2921 14.7915C15.8335 14.7915 15.3867 14.9372 15.0164 15.2077C14.646 15.4782 14.3712 15.8595 14.2317 16.2963H13.4459V9.30051H17.6434C17.872 9.30204 18.0971 9.35752 18.3002 9.46243C18.5034 9.56734 18.6789 9.71872 18.8125 9.90426L19.7996 11.2747C19.9721 11.5187 20.0657 11.8096 20.0679 12.1084V15.8172Z" fill="#C8C8C8"/>
<path d="M17.2786 11.6961H15.362C15.2349 11.6961 15.113 11.6456 15.0232 11.5558C14.9333 11.4659 14.8828 11.344 14.8828 11.217C14.8828 11.0899 14.9333 10.968 15.0232 10.8781C15.113 10.7883 15.2349 10.7378 15.362 10.7378H17.2786C17.4057 10.7378 17.5276 10.7883 17.6175 10.8781C17.7073 10.968 17.7578 11.0899 17.7578 11.217C17.7578 11.344 17.7073 11.4659 17.6175 11.5558C17.5276 11.6456 17.4057 11.6961 17.2786 11.6961Z" fill="#C8C8C8"/>
</svg>
