<svg width="23" height="23" viewBox="0 0 23 23" fill="none" xmlns="http://www.w3.org/2000/svg">
<path d="M9.61904 5.09483L10.241 6.2093C10.8023 7.21505 10.577 8.53443 9.69293 9.41847C9.69293 9.41847 8.62073 10.4908 10.5648 12.435C12.5083 14.3785 13.5814 13.3069 13.5814 13.3069C14.4654 12.4228 15.7848 12.1975 16.7905 12.7588L17.905 13.3808C19.4237 14.2283 19.6031 16.3581 18.2682 17.6931C17.4661 18.4952 16.4834 19.1194 15.3971 19.1605C13.5685 19.2299 10.463 18.7671 7.34789 15.652C4.23276 12.5368 3.76996 9.43133 3.83929 7.60271C3.88047 6.51645 4.50461 5.5338 5.30674 4.73168C6.64165 3.39676 8.77146 3.57613 9.61904 5.09483Z" stroke="#C8C8C8" stroke-linecap="round"/>
</svg>
