<svg width="23" height="23" viewBox="0 0 23 23" fill="none" xmlns="http://www.w3.org/2000/svg">
<path d="M21.083 6.229H15.333" stroke="#C8C8C8" stroke-miterlimit="10" stroke-linecap="round" stroke-linejoin="round"/>
<path d="M5.75033 6.229H1.91699" stroke="#C8C8C8" stroke-miterlimit="10" stroke-linecap="round" stroke-linejoin="round"/>
<path d="M9.58366 9.58333C11.4361 9.58333 12.9378 8.08162 12.9378 6.22917C12.9378 4.37671 11.4361 2.875 9.58366 2.875C7.7312 2.875 6.22949 4.37671 6.22949 6.22917C6.22949 8.08162 7.7312 9.58333 9.58366 9.58333Z" stroke="#C8C8C8" stroke-miterlimit="10" stroke-linecap="round" stroke-linejoin="round"/>
<path d="M21.0833 16.771H17.25" stroke="#C8C8C8" stroke-miterlimit="10" stroke-linecap="round" stroke-linejoin="round"/>
<path d="M7.66699 16.771H1.91699" stroke="#C8C8C8" stroke-miterlimit="10" stroke-linecap="round" stroke-linejoin="round"/>
<path d="M13.4167 20.1248C15.2691 20.1248 16.7708 18.6231 16.7708 16.7707C16.7708 14.9182 15.2691 13.4165 13.4167 13.4165C11.5642 13.4165 10.0625 14.9182 10.0625 16.7707C10.0625 18.6231 11.5642 20.1248 13.4167 20.1248Z" stroke="#C8C8C8" stroke-miterlimit="10" stroke-linecap="round" stroke-linejoin="round"/>
</svg>
