<svg width="30" height="30" viewBox="0 0 30 30" fill="none" xmlns="http://www.w3.org/2000/svg">
<g clip-path="url(#clip0_119_306)">
<path d="M12.2736 0.00585938C11.8647 0.00585938 11.5921 0.278501 11.5921 0.687377C11.5921 1.09625 11.3194 1.36889 10.9106 1.36889C9.75195 1.36889 8.86596 2.25488 8.86596 3.4135C8.86596 3.82244 8.59332 4.09502 8.18445 4.09502C7.77557 4.09502 7.50293 4.36766 7.50293 4.77654C7.50293 5.18541 7.77557 5.45806 8.18445 5.45806C9.34307 5.45806 10.2291 4.57207 10.2291 3.41345C10.2291 3.00451 10.5017 2.73193 10.9106 2.73193C12.0692 2.73193 12.9552 1.84594 12.9552 0.687318C12.9552 0.278443 12.6825 0.00585938 12.2736 0.00585938Z" fill="white"/>
<path d="M16.3635 0.00585938C15.2049 0.00585938 14.3189 0.891844 14.3189 2.05047C14.3189 2.4594 14.0463 2.73199 13.6374 2.73199C12.4788 2.73199 11.5928 3.61797 11.5928 4.7766C11.5928 5.18553 11.8654 5.45811 12.2743 5.45811C12.6832 5.45811 12.9558 5.18547 12.9558 4.7766C12.9558 4.36772 13.2285 4.09508 13.6373 4.09508C14.796 4.09508 15.6819 3.2091 15.6819 2.05047C15.6819 1.64154 15.9546 1.36895 16.3635 1.36895C16.7724 1.36895 17.045 1.09631 17.045 0.687435C17.045 0.27856 16.7724 0.00585938 16.3635 0.00585938Z" fill="white"/>
<path d="M22.4965 5.45801C21.3379 5.45801 20.4519 6.34399 20.4519 7.50262C20.4519 7.91155 20.1793 8.18414 19.7704 8.18414C19.3614 8.18414 19.0889 8.45678 19.0889 8.86565C19.0889 9.27459 19.3615 9.54717 19.7704 9.54717C20.929 9.54717 21.815 8.66119 21.815 7.50256C21.815 7.09363 22.0876 6.82104 22.4965 6.82104C22.9054 6.82104 23.178 6.5484 23.178 6.13953C23.178 5.73065 22.9054 5.45801 22.4965 5.45801Z" fill="white"/>
<path d="M25.9047 5.45801C25.4958 5.45801 25.2232 5.73065 25.2232 6.13953C25.2232 6.5484 24.9506 6.82104 24.5417 6.82104C23.3831 6.82104 22.4971 7.70703 22.4971 8.86565C22.4971 9.27459 22.7697 9.54717 23.1786 9.54717C23.5875 9.54717 23.8601 9.27453 23.8601 8.86565C23.8601 8.45672 24.1327 8.18414 24.5416 8.18414C25.7002 8.18414 26.5862 7.29815 26.5862 6.13953C26.5862 5.73059 26.3136 5.45801 25.9047 5.45801Z" fill="white"/>
<path d="M29.9256 29.0395L28.6307 25.7681C26.7906 21.2017 25.9046 16.431 25.9046 11.5921C25.9046 11.1832 25.632 10.9106 25.2231 10.9106H18.4077C17.9987 10.9106 17.7262 11.1832 17.7262 11.5921V14.3182C17.7262 14.7271 17.9988 14.9997 18.4077 14.9997H22.4969C22.9058 14.9997 23.1784 14.7271 23.1784 14.3182C23.1784 13.9093 22.9058 13.6367 22.4969 13.6367H19.0892V12.2736H24.5415C24.6097 17.1125 25.5638 21.8151 27.3358 26.3133L28.29 28.6305H20.2478L19.2255 25.7681C17.3172 20.3839 16.363 14.7271 16.363 9.00219V7.50281C16.363 7.09387 16.0904 6.82129 15.6815 6.82129H4.77686C4.36793 6.82129 4.09534 7.09393 4.09534 7.50281V9.00219C4.09534 14.7271 3.14118 20.3839 1.23286 25.7681L0.0742969 29.1077C-0.0619949 29.3121 0.00612171 29.5166 0.142472 29.7211C0.278764 29.8573 0.483231 29.9937 0.687698 29.9937H17.0446C17.4536 29.9937 17.7262 29.7211 17.7262 29.3122C17.7262 28.9033 17.4535 28.6307 17.0446 28.6307H1.6418L2.52778 26.1771C4.4361 20.6566 5.45838 14.8636 5.45838 9.00237V8.1845H14.9999V9.00237C14.9999 9.68388 14.9999 10.2973 15.0681 10.9107H7.50305C7.09411 10.9107 6.82153 11.1833 6.82153 11.5922C6.82153 12.0011 7.09417 12.2737 7.50305 12.2737H15.1363C15.4089 17.0445 16.363 21.679 17.9987 26.1771L19.1574 29.5166C19.2255 29.7893 19.4981 29.9937 19.7708 29.9937H29.3123C29.5168 29.9937 29.7212 29.8574 29.8575 29.7211C29.9938 29.5847 30.062 29.2439 29.9256 29.0395Z" fill="white"/>
</g>
<defs>
<clipPath id="clip0_119_306">
<rect width="30" height="30" fill="white"/>
</clipPath>
</defs>
</svg>
