<svg width="30" height="30" viewBox="0 0 30 30" fill="none" xmlns="http://www.w3.org/2000/svg">
<path d="M25.5247 15.4621C26.6122 15.8996 27.2872 17.1871 27.0372 18.3246L26.5247 20.6496C25.6372 24.6496 22.4997 27.4996 17.9747 27.4996H12.0247C7.49967 27.4996 4.36219 24.6496 3.47469 20.6496L2.96217 18.3246C2.71217 17.1871 3.38716 15.8996 4.47466 15.4621L6.24969 14.7496L13.1372 11.9871C14.3372 11.5121 15.6622 11.5121 16.8622 11.9871L23.7497 14.7496L25.5247 15.4621Z" stroke="white" stroke-linecap="round" stroke-linejoin="round"/>
<path d="M15 27.5V12.5" stroke="white" stroke-linecap="round" stroke-linejoin="round"/>
<path d="M23.75 10V14.75L16.8625 11.9875C15.6625 11.5125 14.3375 11.5125 13.1375 11.9875L6.25 14.75V10C6.25 7.9375 7.9375 6.25 10 6.25H20C22.0625 6.25 23.75 7.9375 23.75 10Z" stroke="white" stroke-linecap="round" stroke-linejoin="round"/>
<path d="M18.125 6.25H11.875V3.75C11.875 3.0625 12.4375 2.5 13.125 2.5H16.875C17.5625 2.5 18.125 3.0625 18.125 3.75V6.25Z" stroke="white" stroke-linecap="round" stroke-linejoin="round"/>
</svg>
