<svg width="30" height="30" viewBox="0 0 30 30" fill="none" xmlns="http://www.w3.org/2000/svg">
<path d="M9.29833 26.25C9.17683 26.25 9.05683 26.2133 8.95408 26.1443C8.70658 25.983 8.60683 25.6762 8.71183 25.398L11.8558 17.0828H8.25808C8.00233 17.0828 7.77433 16.9305 7.67833 16.6943C7.58008 16.4573 7.63408 16.188 7.81483 16.0095L19.9671 3.93375C20.0856 3.8145 20.2438 3.75 20.4103 3.75C20.5288 3.75 20.6451 3.78375 20.7433 3.846C20.9931 4.0035 21.0996 4.30575 21.0013 4.584L18.1153 12.9113H21.7416C21.9988 12.9113 22.2268 13.065 22.3236 13.3035C22.4196 13.542 22.3633 13.8112 22.1803 13.9897L9.73783 26.0723C9.61858 26.1855 9.46183 26.25 9.29833 26.25ZM9.78133 15.8273H12.7656C12.9718 15.8273 13.1661 15.9285 13.2838 16.098C13.4001 16.2683 13.4256 16.485 13.3528 16.677L11.1171 22.5922L11.3563 22.749L20.1928 14.1675H17.2341C17.0301 14.1675 16.8388 14.0693 16.7226 13.9035C16.6048 13.7385 16.5741 13.5262 16.6401 13.3328L18.7206 7.33425L18.4806 7.182L9.78133 15.8273Z" fill="white"/>
</svg>
