<svg width="30" height="30" viewBox="0 0 30 30" fill="none" xmlns="http://www.w3.org/2000/svg">
<g clip-path="url(#clip0_119_336)">
<path d="M3.11768 29.1313H2.25098V30.0005H24.8315V29.1313H24.3433V24.981C24.3433 24.902 24.3119 24.8262 24.256 24.7703C24.2002 24.7145 24.1244 24.6831 24.0454 24.6831H20.6934C20.6144 24.6831 20.5386 24.7145 20.4827 24.7703C20.4269 24.8262 20.3955 24.902 20.3955 24.981V29.1313H14.0845V23.25C14.0838 23.1449 14.0416 23.0443 13.9671 22.9702C13.8925 22.8961 13.7916 22.8545 13.6865 22.8545H7.11914C7.01402 22.8545 6.91317 22.8961 6.83861 22.9702C6.76405 23.0443 6.72184 23.1449 6.72119 23.25V29.1313H2.25098V0.635254C2.26468 0.473536 2.33567 0.322025 2.45117 0.208008C2.58039 0.0777331 2.75597 0.00398798 2.93945 0.00292969H17.8589C17.9498 0.0031874 18.0397 0.0214421 18.1235 0.0566404C18.2073 0.0918388 18.2833 0.143284 18.3472 0.208008L18.3789 0.239746C18.4923 0.366652 18.5549 0.530962 18.5547 0.701172V8.44043H27.1533C27.2299 8.44043 27.3058 8.45552 27.3766 8.48484C27.4474 8.51417 27.5117 8.55715 27.5659 8.61133C27.6201 8.66498 27.6632 8.72886 27.6925 8.79927C27.7218 8.86968 27.7369 8.94521 27.7368 9.02148V29.6001C27.7368 29.7056 27.6949 29.8069 27.6203 29.8815C27.5456 29.9561 27.4444 29.998 27.3389 29.998H24.8315V29.1289H26.9092V9.27783H18.5571V29.1362H17.688V0.869629H3.11768V29.1313ZM23.7573 29.1313H20.9912V25.269H23.7573V29.1313ZM23.1128 10.9868H25.2637C25.2808 10.9868 25.2954 11.0112 25.2954 11.0405V12.4346C25.2954 12.459 25.2808 12.4858 25.2637 12.4858H23.1128C23.0957 12.4858 23.0811 12.4639 23.0811 12.4346V11.0405C23.0811 11.0112 23.0957 10.9868 23.1128 10.9868ZM23.1128 20.6548H25.2637C25.2808 20.6548 25.2954 20.6792 25.2954 20.7061V22.1001C25.2954 22.127 25.2808 22.1538 25.2637 22.1538H23.1128C23.0957 22.1538 23.0811 22.1294 23.0811 22.1001V20.7061C23.0811 20.6792 23.0957 20.6548 23.1128 20.6548ZM19.4873 20.6548H21.6357C21.6553 20.6548 21.6699 20.6792 21.6699 20.7061V22.1001C21.6699 22.127 21.6553 22.1538 21.6357 22.1538H19.4873C19.4678 22.1538 19.4531 22.1294 19.4531 22.1001V20.7061C19.4531 20.6792 19.4678 20.6548 19.4873 20.6548ZM23.1128 17.4321H25.2637C25.2808 17.4321 25.2954 17.4565 25.2954 17.4858V18.8799C25.2954 18.9067 25.2808 18.9336 25.2637 18.9336H23.1128C23.0957 18.9336 23.0811 18.9092 23.0811 18.8799V17.4858C23.0811 17.4541 23.0957 17.4321 23.1128 17.4321ZM23.1128 14.2095H25.2637C25.2808 14.2095 25.2954 14.2339 25.2954 14.2632V15.6572C25.2954 15.6841 25.2808 15.7109 25.2637 15.7109H23.1128C23.0957 15.7109 23.0811 15.6865 23.0811 15.6572V14.2632C23.0811 14.2339 23.0957 14.2095 23.1128 14.2095ZM19.4873 10.9868H21.6357C21.6553 10.9868 21.6699 11.0112 21.6699 11.0405V12.4346C21.6699 12.459 21.6553 12.4858 21.6357 12.4858H19.4873C19.4678 12.4858 19.4531 12.4639 19.4531 12.4346V11.0405C19.4531 11.0112 19.4678 10.9868 19.4873 10.9868ZM19.4873 17.4321H21.6357C21.6553 17.4321 21.6699 17.4565 21.6699 17.4858V18.8799C21.6699 18.9067 21.6553 18.9336 21.6357 18.9336H19.4873C19.4678 18.9336 19.4531 18.9092 19.4531 18.8799V17.4858C19.4531 17.4541 19.4678 17.4321 19.4873 17.4321ZM19.4873 14.2095H21.6357C21.6553 14.2095 21.6699 14.2339 21.6699 14.2632V15.6572C21.6699 15.6841 21.6553 15.7109 21.6357 15.7109H19.4873C19.4678 15.7109 19.4531 15.6865 19.4531 15.6572V14.2632C19.4531 14.2339 19.4678 14.2095 19.4873 14.2095ZM13.2886 29.1313H7.51709V23.6479H13.2886V29.1313ZM5.2124 3.05713H7.55127C7.56856 3.05774 7.58497 3.06488 7.59721 3.07711C7.60944 3.08934 7.61658 3.10576 7.61719 3.12305V5.46435C7.61658 5.48164 7.60944 5.49806 7.59721 5.51029C7.58497 5.52253 7.56856 5.52967 7.55127 5.53027H5.2124C5.19511 5.52967 5.1787 5.52253 5.16646 5.51029C5.15423 5.49806 5.14709 5.48164 5.14648 5.46435V3.12305C5.14709 3.10576 5.15423 3.08934 5.16646 3.07711C5.1787 3.06488 5.19511 3.05774 5.2124 3.05713ZM13.2544 3.05713H15.5933C15.6106 3.05774 15.627 3.06488 15.6392 3.07711C15.6514 3.08934 15.6586 3.10576 15.6592 3.12305V5.46435C15.6586 5.48164 15.6514 5.49806 15.6392 5.51029C15.627 5.52253 15.6106 5.52967 15.5933 5.53027H13.2544C13.2371 5.52967 13.2207 5.52253 13.2085 5.51029C13.1962 5.49806 13.1891 5.48164 13.1885 5.46435V3.12305C13.1891 3.10576 13.1962 3.08934 13.2085 3.07711C13.2207 3.06488 13.2371 3.05774 13.2544 3.05713ZM9.2334 3.05713H11.5723C11.5896 3.05774 11.606 3.06488 11.6182 3.07711C11.6304 3.08934 11.6376 3.10576 11.6382 3.12305V5.46435C11.6376 5.48164 11.6304 5.49806 11.6182 5.51029C11.606 5.52253 11.5896 5.52967 11.5723 5.53027H9.2334C9.21611 5.52967 9.19969 5.52253 9.18746 5.51029C9.17523 5.49806 9.16809 5.48164 9.16748 5.46435V3.12305C9.16809 3.10576 9.17523 3.08934 9.18746 3.07711C9.19969 3.06488 9.21611 3.05774 9.2334 3.05713ZM5.2124 8.12549H7.55127C7.56856 8.12609 7.58497 8.13324 7.59721 8.14547C7.60944 8.1577 7.61658 8.17412 7.61719 8.19141V10.5327C7.61658 10.55 7.60944 10.5664 7.59721 10.5787C7.58497 10.5909 7.56856 10.598 7.55127 10.5986H5.2124C5.19511 10.598 5.1787 10.5909 5.16646 10.5787C5.15423 10.5664 5.14709 10.55 5.14648 10.5327V8.19141C5.14709 8.17412 5.15423 8.1577 5.16646 8.14547C5.1787 8.13324 5.19511 8.12609 5.2124 8.12549ZM13.2544 8.12549H15.5933C15.6106 8.12609 15.627 8.13324 15.6392 8.14547C15.6514 8.1577 15.6586 8.17412 15.6592 8.19141V10.5327C15.6586 10.55 15.6514 10.5664 15.6392 10.5787C15.627 10.5909 15.6106 10.598 15.5933 10.5986H13.2544C13.2371 10.598 13.2207 10.5909 13.2085 10.5787C13.1962 10.5664 13.1891 10.55 13.1885 10.5327V8.19141C13.1891 8.17412 13.1962 8.1577 13.2085 8.14547C13.2207 8.13324 13.2371 8.12609 13.2544 8.12549ZM9.2334 8.12549H11.5723C11.5896 8.12609 11.606 8.13324 11.6182 8.14547C11.6304 8.1577 11.6376 8.17412 11.6382 8.19141V10.5327C11.6376 10.55 11.6304 10.5664 11.6182 10.5787C11.606 10.5909 11.5896 10.598 11.5723 10.5986H9.2334C9.21611 10.598 9.19969 10.5909 9.18746 10.5787C9.17523 10.5664 9.16809 10.55 9.16748 10.5327V8.19141C9.16809 8.17412 9.17523 8.1577 9.18746 8.14547C9.19969 8.13324 9.21611 8.12609 9.2334 8.12549ZM5.2124 18.2622H7.55127C7.56875 18.2622 7.58552 18.2691 7.59788 18.2815C7.61024 18.2939 7.61719 18.3106 7.61719 18.3281V20.667C7.61719 20.6845 7.61024 20.7012 7.59788 20.7136C7.58552 20.726 7.56875 20.7329 7.55127 20.7329H5.2124C5.19492 20.7329 5.17815 20.726 5.16579 20.7136C5.15343 20.7012 5.14648 20.6845 5.14648 20.667V18.3281C5.14648 18.3106 5.15343 18.2939 5.16579 18.2815C5.17815 18.2691 5.19492 18.2622 5.2124 18.2622ZM13.2544 18.2622H15.5933C15.6107 18.2622 15.6275 18.2691 15.6399 18.2815C15.6522 18.2939 15.6592 18.3106 15.6592 18.3281V20.667C15.6592 20.6845 15.6522 20.7012 15.6399 20.7136C15.6275 20.726 15.6107 20.7329 15.5933 20.7329H13.2544C13.2369 20.7329 13.2201 20.726 13.2078 20.7136C13.1954 20.7012 13.1885 20.6845 13.1885 20.667V18.3281C13.1885 18.3106 13.1954 18.2939 13.2078 18.2815C13.2201 18.2691 13.2369 18.2622 13.2544 18.2622ZM9.2334 18.2622H11.5723C11.5897 18.2622 11.6065 18.2691 11.6189 18.2815C11.6312 18.2939 11.6382 18.3106 11.6382 18.3281V20.667C11.6382 20.6845 11.6312 20.7012 11.6189 20.7136C11.6065 20.726 11.5897 20.7329 11.5723 20.7329H9.2334C9.21592 20.7329 9.19915 20.726 9.18679 20.7136C9.17443 20.7012 9.16748 20.6845 9.16748 20.667V18.3281C9.16748 18.3106 9.17443 18.2939 9.18679 18.2815C9.19915 18.2691 9.21592 18.2622 9.2334 18.2622ZM5.2124 13.1841H7.55127C7.56875 13.1841 7.58552 13.191 7.59788 13.2034C7.61024 13.2158 7.61719 13.2325 7.61719 13.25V15.6011C7.61658 15.6184 7.60944 15.6348 7.59721 15.647C7.58497 15.6592 7.56856 15.6664 7.55127 15.667H5.2124C5.19511 15.6664 5.1787 15.6592 5.16646 15.647C5.15423 15.6348 5.14709 15.6184 5.14648 15.6011V13.2598C5.14648 13.2423 5.15343 13.2255 5.16579 13.2132C5.17815 13.2008 5.19492 13.1938 5.2124 13.1938V13.1841ZM13.2544 13.1841H15.5933C15.6107 13.1841 15.6275 13.191 15.6399 13.2034C15.6522 13.2158 15.6592 13.2325 15.6592 13.25V15.6011C15.6586 15.6184 15.6514 15.6348 15.6392 15.647C15.627 15.6592 15.6106 15.6664 15.5933 15.667H13.2544C13.2371 15.6664 13.2207 15.6592 13.2085 15.647C13.1962 15.6348 13.1891 15.6184 13.1885 15.6011V13.2598C13.1885 13.2423 13.1954 13.2255 13.2078 13.2132C13.2201 13.2008 13.2369 13.1938 13.2544 13.1938V13.1841ZM9.2334 13.1841H11.5723C11.5897 13.1841 11.6065 13.191 11.6189 13.2034C11.6312 13.2158 11.6382 13.2325 11.6382 13.25V15.6011C11.6376 15.6184 11.6304 15.6348 11.6182 15.647C11.606 15.6592 11.5896 15.6664 11.5723 15.667H9.2334C9.21611 15.6664 9.19969 15.6592 9.18746 15.647C9.17523 15.6348 9.16809 15.6184 9.16748 15.6011V13.2598C9.16607 13.2503 9.16672 13.2407 9.16939 13.2315C9.17206 13.2224 9.17669 13.2139 9.18296 13.2067C9.18923 13.1995 9.19699 13.1938 9.2057 13.1898C9.2144 13.1859 9.22386 13.184 9.2334 13.1841Z" fill="white"/>
</g>
<defs>
<clipPath id="clip0_119_336">
<rect width="30" height="30" fill="white"/>
</clipPath>
</defs>
</svg>
