<svg width="30" height="30" viewBox="0 0 30 30" fill="none" xmlns="http://www.w3.org/2000/svg">
<g clip-path="url(#clip0_119_333)">
<path d="M29.0625 29.4003H0.9375V28.7253H4.35V14.8531C4.04531 14.8015 3.74531 14.6956 3.46219 14.5325C2.84438 14.1753 2.40187 13.5968 2.21531 12.9031C2.02875 12.2093 2.12344 11.4875 2.48062 10.8696L7.63688 1.93902C7.99312 1.32121 8.5725 0.878706 9.26531 0.692143C9.95719 0.505581 10.68 0.600268 11.2987 0.957456C11.9166 1.31464 12.3591 1.89308 12.5456 2.58683C12.7322 3.28058 12.6375 4.00246 12.2803 4.62027L10.4531 7.78714L27.9788 17.8981C28.0566 17.9431 28.1137 18.0162 28.1362 18.1034C28.1587 18.1896 28.1475 18.2815 28.1025 18.3584L26.6962 20.794C26.6663 20.8465 26.625 20.8878 26.5763 20.9159V24.9753H27.6769C27.8634 24.9753 28.0144 25.1262 28.0144 25.3128V28.7253H29.0625V29.4003ZM25.1616 28.7253H27.3384V25.6503H25.1616V28.7253ZM20.9212 28.7253H24.4856V25.3128C24.4856 25.1262 24.6366 24.9753 24.8231 24.9753H25.8994V20.7256L15.6516 14.8128L20.9212 28.7253ZM9.77437 28.7253H20.1994L19.035 25.6512H10.9453L9.77437 28.7253ZM5.025 28.7253H9.0525L14.5809 14.195L8.70937 10.8078L7.125 13.5518C6.66937 14.3403 5.87063 14.8109 5.025 14.8821V28.7253ZM11.2022 24.9753H18.78L17.6081 21.8815H12.3797L11.2022 24.9753ZM12.6366 21.2056H17.3522L16.1878 18.1315H13.8066L12.6366 21.2056ZM15.2025 13.774L26.28 20.165L27.3488 18.3134L10.1175 8.37308L9.04875 10.2246L15.1322 13.7337C15.1575 13.744 15.1809 13.7581 15.2025 13.774ZM14.0625 17.4556H15.9309L14.9981 14.9946L14.0625 17.4556ZM9.9675 1.27433C9.79219 1.27433 9.61594 1.29683 9.44062 1.34464C8.92125 1.48339 8.48813 1.81433 8.22188 2.27652L3.06562 11.2071C2.79844 11.6693 2.72906 12.2093 2.86781 12.7287C3.00656 13.2481 3.3375 13.6812 3.79969 13.9475C4.75688 14.5006 5.98688 14.1715 6.54 13.2134L11.6962 4.28277C12.2494 3.32464 11.9203 2.09558 10.9622 1.54246C10.6556 1.36527 10.3144 1.27433 9.9675 1.27433ZM4.81312 11.2315C4.29562 11.2315 3.87562 11.6515 3.87562 12.169C3.87562 12.6865 4.29562 13.1065 4.81312 13.1065C5.33063 13.1065 5.75062 12.6865 5.75062 12.169C5.75062 11.6515 5.33063 11.2315 4.81312 11.2315Z" fill="white"/>
</g>
<defs>
<clipPath id="clip0_119_333">
<rect width="30" height="30" fill="white"/>
</clipPath>
</defs>
</svg>
