<svg width="30" height="30" viewBox="0 0 30 30" fill="none" xmlns="http://www.w3.org/2000/svg">
<path d="M15 17.3438C16.2928 17.3438 17.3438 16.2919 17.3438 15C17.3438 13.7081 16.2928 12.6562 15 12.6562C13.7072 12.6562 12.6562 13.7081 12.6562 15C12.6562 16.2919 13.7072 17.3438 15 17.3438ZM15 13.5938C15.7753 13.5938 16.4062 14.2247 16.4062 15C16.4062 15.7753 15.7753 16.4062 15 16.4062C14.2247 16.4062 13.5938 15.7753 13.5938 15C13.5938 14.2247 14.2247 13.5938 15 13.5938Z" fill="white"/>
<path d="M2.00955 22.5C2.74549 23.775 4.33361 24.4491 6.59955 24.4491C7.55861 24.4491 8.62643 24.3113 9.74861 24.075C10.9364 27.69 12.8264 30 14.9996 30C17.1727 30 19.0627 27.69 20.2505 24.075C21.3736 24.3113 22.4405 24.4491 23.3996 24.4491C25.6664 24.4491 27.2536 23.775 27.9896 22.5C29.0752 20.6203 28.0233 17.8331 25.493 15C28.0242 12.1669 29.0752 9.37969 27.9896 7.5C27.2536 6.225 25.6655 5.55094 23.3996 5.55094C22.4405 5.55094 21.3727 5.68875 20.2505 5.925C19.0627 2.31 17.1727 0 14.9996 0C12.8264 0 10.9364 2.31 9.74861 5.925C8.62643 5.68875 7.55861 5.55094 6.59955 5.55094C4.33268 5.55094 2.74549 6.225 2.00955 7.5C0.923926 9.37969 1.9758 12.1669 4.50611 15C1.97486 17.8331 0.922989 20.6203 2.00955 22.5ZM14.9996 29.0625C13.2821 29.0625 11.7146 27.0178 10.673 23.8697C12.0605 23.5134 13.5239 22.995 14.9996 22.3453C16.4752 22.9959 17.9386 23.5134 19.3261 23.8697C18.2846 27.0178 16.7171 29.0625 14.9996 29.0625ZM9.37455 15C9.37455 13.9172 9.43174 12.8625 9.53018 11.8416C10.3646 11.2462 11.2496 10.6697 12.1871 10.1278C13.1171 9.59063 14.0602 9.10969 14.9996 8.68031C15.9389 9.10969 16.8821 9.59063 17.8121 10.1278C18.7496 10.6697 19.6346 11.2462 20.4689 11.8416C20.5674 12.8625 20.6246 13.9172 20.6246 15C20.6246 16.0828 20.5674 17.1375 20.4689 18.1584C19.6346 18.7537 18.7496 19.3303 17.8121 19.8722C16.8821 20.4094 15.9389 20.8903 14.9996 21.3197C14.0602 20.8903 13.1171 20.4094 12.1871 19.8722C11.2496 19.3303 10.3646 18.7537 9.53018 18.1584C9.43174 17.1375 9.37455 16.0828 9.37455 15ZM8.52611 17.4131C7.50893 16.6247 6.59299 15.8119 5.8008 15C6.59205 14.1881 7.50799 13.3753 8.52611 12.5869C8.47268 13.3725 8.43705 14.1741 8.43705 15C8.43705 15.8259 8.47268 16.6275 8.52611 17.4131ZM9.67268 10.6003C9.84799 9.3225 10.0946 8.12062 10.4021 7.0275C11.5102 7.30969 12.6746 7.70813 13.8558 8.19187C13.1405 8.54062 12.4252 8.90812 11.7183 9.31687C11.003 9.72937 10.3271 10.1606 9.67268 10.6003ZM16.1424 8.19187C17.3236 7.70813 18.488 7.30969 19.5961 7.0275C19.9046 8.12062 20.1511 9.3225 20.3255 10.6003C19.6711 10.1606 18.9952 9.72937 18.2799 9.31687C17.5739 8.90812 16.8586 8.54062 16.1424 8.19187ZM21.473 12.5869C22.4902 13.3762 23.4061 14.1881 24.1983 15C23.4071 15.8119 22.4911 16.6247 21.473 17.4131C21.5264 16.6275 21.5621 15.8259 21.5621 15C21.5621 14.1741 21.5264 13.3725 21.473 12.5869ZM20.3264 19.3997C20.1511 20.6775 19.9046 21.8794 19.5971 22.9725C18.4889 22.6903 17.3246 22.2919 16.1433 21.8081C16.8596 21.4594 17.5749 21.0909 18.2817 20.6831C18.9961 20.2706 19.6721 19.8394 20.3264 19.3997ZM11.7183 20.6831C12.4252 21.0909 13.1405 21.4594 13.8567 21.8081C12.6755 22.2919 11.5111 22.6903 10.403 22.9725C10.0946 21.8794 9.84799 20.6775 9.67361 19.3997C10.3271 19.8394 11.003 20.2706 11.7183 20.6831ZM27.1786 22.0312C26.4717 23.2547 24.7336 23.5116 23.3996 23.5116C22.5239 23.5116 21.5508 23.3897 20.5252 23.1788C20.9058 21.8194 21.1899 20.3025 21.3633 18.6741C22.6889 17.7084 23.8617 16.7034 24.8489 15.6919C27.0521 18.1669 28.0374 20.5444 27.1786 22.0312ZM23.3996 6.48844C24.7336 6.48844 26.4717 6.74531 27.1786 7.96875C28.0374 9.45562 27.0521 11.8331 24.8489 14.3072C23.8608 13.2966 22.688 12.2906 21.3633 11.325C21.1899 9.69656 20.9058 8.17969 20.5252 6.82031C21.5508 6.61031 22.5239 6.48844 23.3996 6.48844ZM14.9996 0.9375C16.7171 0.9375 18.2846 2.98219 19.3261 6.13031C17.9386 6.48656 16.4752 7.005 14.9996 7.65469C13.5239 7.00406 12.0605 6.48656 10.673 6.13031C11.7146 2.98219 13.2821 0.9375 14.9996 0.9375ZM2.82049 7.96875C3.52736 6.74531 5.26549 6.48844 6.59955 6.48844C7.47518 6.48844 8.4483 6.61031 9.47393 6.82125C9.0933 8.18062 8.80924 9.6975 8.6358 11.3259C7.31018 12.2916 6.13736 13.2966 5.15018 14.3081C2.94705 11.8331 1.96174 9.45562 2.82049 7.96875ZM5.15018 15.6928C6.1383 16.7034 7.31111 17.7094 8.6358 18.675C8.80924 20.3034 9.0933 21.8203 9.47393 23.1797C8.4483 23.3906 7.47518 23.5125 6.59955 23.5125C5.26549 23.5125 3.52736 23.2556 2.82049 22.0322C1.96174 20.5444 2.94705 18.1669 5.15018 15.6928Z" fill="white"/>
</svg>
