<svg width="55" height="55" viewBox="0 0 55 55" fill="none" xmlns="http://www.w3.org/2000/svg">
<g clip-path="url(#clip0_81_46)">
<path d="M46.75 0H8.25C3.69365 0 0 3.69365 0 8.25V46.75C0 51.3064 3.69365 55 8.25 55H46.75C51.3064 55 55 51.3064 55 46.75V8.25C55 3.69365 51.3064 0 46.75 0Z" fill="#37AEE2"/>
<path d="M21.377 43.3984C20.1953 43.3984 20.3027 42.9688 19.9805 41.8945L16.543 30.6152L42.8613 15.1465" fill="#C8DAEA"/>
<path d="M21.377 43.3984C22.1289 43.3984 22.5586 42.9688 23.0957 42.5391L27.9297 37.9199L21.9141 34.2676" fill="#A9C9DD"/>
<path d="M21.9139 34.2674L36.4159 44.9022C37.9198 45.869 39.2088 45.3319 39.6385 43.3983L45.5467 15.6834C46.0838 13.3201 44.5799 12.2459 42.9686 12.9979L8.48618 26.3182C6.23032 27.1776 6.23032 28.574 8.05649 29.1112L16.9725 31.9041L37.3827 18.9061C38.3495 18.369 39.2088 18.5838 38.5643 19.3358" fill="#F6FBFE"/>
</g>
<defs>
<clipPath id="clip0_81_46">
<rect width="55" height="55" fill="white"/>
</clipPath>
</defs>
</svg>
