<svg width="55" height="55" viewBox="0 0 55 55" fill="none" xmlns="http://www.w3.org/2000/svg">
<g clip-path="url(#clip0_81_51)">
<path d="M46.75 0H8.25C3.69365 0 0 3.69365 0 8.25V46.75C0 51.3064 3.69365 55 8.25 55H46.75C51.3064 55 55 51.3064 55 46.75V8.25C55 3.69365 51.3064 0 46.75 0Z" fill="#25D366"/>
<path d="M13.2125 42.2166L14.7164 35.2341C12.7834 32.1853 12.0294 28.536 12.5957 24.9708C13.162 21.4055 15.0098 18.1695 17.7924 15.8697C20.575 13.57 24.1011 12.3646 27.7092 12.4797C31.3172 12.5948 34.7593 14.0226 37.3896 16.4951C40.0199 18.9675 41.6576 22.3148 41.9955 25.9089C42.3334 29.503 41.3482 33.0968 39.2248 36.0162C37.1014 38.9356 33.9857 40.9798 30.4623 41.7654C26.9389 42.5509 23.2499 42.0238 20.0875 40.283L13.2125 42.2166Z" fill="#25D366" stroke="white"/>
<path d="M33.0863 29.3261C32.764 29.1112 32.4418 29.0038 32.1195 29.4335L30.8304 31.1522C30.5082 31.3671 30.2933 31.4745 29.8636 31.2597C28.2523 30.4003 25.9965 29.4335 24.0629 26.2108C23.9554 25.7812 24.1703 25.5663 24.3851 25.3515L25.3519 23.8476C25.5668 23.6327 25.4593 23.4179 25.3519 23.203L24.0629 20.0878C23.7406 19.2284 23.4183 19.3358 23.0961 19.3358H22.2367C22.0218 19.3358 21.5922 19.4433 21.1625 19.8729C18.7992 22.2362 19.766 25.5663 21.4847 27.7147C21.807 28.1444 23.9554 32.0116 28.5746 34.0526C32.0121 35.5565 32.764 35.3417 33.7308 35.1269C34.9125 35.0194 36.0941 34.0526 36.6312 33.0858C36.7386 32.7636 37.2757 31.3671 36.8461 31.1522" fill="white"/>
</g>
<defs>
<clipPath id="clip0_81_51">
<rect width="55" height="55" fill="white"/>
</clipPath>
</defs>
</svg>
